<svg xmlns="http://www.w3.org/2000/svg" width="520" height="360" viewBox="0 0 520 360"><rect x="0" y="0" width="520" height="360" fill="white"/><line x1="62" y1="314" x2="506" y2="314" stroke="#ddd" stroke-width="0.6"/><line x1="62" y1="246.54196876204915" x2="506" y2="246.54196876204915" stroke="#ddd" stroke-width="0.6"/><line x1="62" y1="179.0839375240983" x2="506" y2="179.0839375240983" stroke="#ddd" stroke-width="0.6"/><line x1="62" y1="111.62590628614747" x2="506" y2="111.62590628614747" stroke="#ddd" stroke-width="0.6"/><line x1="62" y1="44.16787504819662" x2="506" y2="44.16787504819662" stroke="#ddd" stroke-width="0.6"/><rect x="62" y="14" width="444" height="300" fill="none" stroke="black" stroke-width="1"/><line x1="62" y1="314" x2="62" y2="318" stroke="black"/><text x="62" y="332" text-anchor="middle" font-size="12" font-family="Georgia,'Times New Roman',serif">0.05</text><line x1="140.4318706635307" y1="314" x2="140.4318706635307" y2="318" stroke="black"/><text x="140.4318706635307" y="332" text-anchor="middle" font-size="12" font-family="Georgia,'Times New Roman',serif">0.2</text><line x1="192.27251734587725" y1="314" x2="192.27251734587725" y2="318" stroke="black"/><text x="192.27251734587725" y="332" text-anchor="middle" font-size="12" font-family="Georgia,'Times New Roman',serif">0.5</text><line x1="231.4884526776426" y1="314" x2="231.4884526776426" y2="318" stroke="black"/><text x="231.4884526776426" y="332" text-anchor="middle" font-size="12" font-family="Georgia,'Times New Roman',serif">1</text><line x1="270.7043880094079" y1="314" x2="270.7043880094079" y2="318" stroke="black"/><text x="270.7043880094079" y="332" text-anchor="middle" font-size="12" font-family="Georgia,'Times New Roman',serif">2</text><line x1="309.9203233411733" y1="314" x2="309.9203233411733" y2="318" stroke="black"/><text x="309.9203233411733" y="332" text-anchor="middle" font-size="12" font-family="Georgia,'Times New Roman',serif">4</text><line x1="349.13625867293865" y1="314" x2="349.13625867293865" y2="318" stroke="black"/><text x="349.13625867293865" y="332" text-anchor="middle" font-size="12" font-family="Georgia,'Times New Roman',serif">8</text><line x1="388.352194004704" y1="314" x2="388.352194004704" y2="318" stroke="black"/><text x="388.352194004704" y="332" text-anchor="middle" font-size="12" font-family="Georgia,'Times New Roman',serif">16</text><line x1="427.5681293364693" y1="314" x2="427.5681293364693" y2="318" stroke="black"/><text x="427.5681293364693" y="332" text-anchor="middle" font-size="12" font-family="Georgia,'Times New Roman',serif">32</text><line x1="466.78406466823463" y1="314" x2="466.78406466823463" y2="318" stroke="black"/><text x="466.78406466823463" y="332" text-anchor="middle" font-size="12" font-family="Georgia,'Times New Roman',serif">64</text><line x1="506" y1="314" x2="506" y2="318" stroke="black"/><text x="506" y="332" text-anchor="middle" font-size="12" font-family="Georgia,'Times New Roman',serif">128</text><line x1="58" y1="314" x2="62" y2="314" stroke="black"/><text x="55" y="318" text-anchor="end" font-size="12" font-family="Georgia,'Times New Roman',serif">0</text><line x1="58" y1="246.54196876204915" x2="62" y2="246.54196876204915" stroke="black"/><text x="55" y="250.54196876204915" text-anchor="end" font-size="12" font-family="Georgia,'Times New Roman',serif">0.1</text><line x1="58" y1="179.0839375240983" x2="62" y2="179.0839375240983" stroke="black"/><text x="55" y="183.0839375240983" text-anchor="end" font-size="12" font-family="Georgia,'Times New Roman',serif">0.2</text><line x1="58" y1="111.62590628614747" x2="62" y2="111.62590628614747" stroke="black"/><text x="55" y="115.62590628614747" text-anchor="end" font-size="12" font-family="Georgia,'Times New Roman',serif">0.3</text><line x1="58" y1="44.16787504819662" x2="62" y2="44.16787504819662" stroke="black"/><text x="55" y="48.16787504819662" text-anchor="end" font-size="12" font-family="Georgia,'Times New Roman',serif">0.4</text><polyline fill="none" stroke="black" stroke-width="2" points="62.0,32.4 140.4,37.9 192.3,48.1 231.5,63.5 270.7,89.6 309.9,128.3 349.1,175.9 388.4,222.7 427.6,259.6 466.8,283.9 506.0,298.1"/><circle cx="62.0" cy="32.4" r="3" fill="black"/><circle cx="140.4" cy="37.9" r="3" fill="black"/><circle cx="192.3" cy="48.1" r="3" fill="black"/><circle cx="231.5" cy="63.5" r="3" fill="black"/><circle cx="270.7" cy="89.6" r="3" fill="black"/><circle cx="309.9" cy="128.3" r="3" fill="black"/><circle cx="349.1" cy="175.9" r="3" fill="black"/><circle cx="388.4" cy="222.7" r="3" fill="black"/><circle cx="427.6" cy="259.6" r="3" fill="black"/><circle cx="466.8" cy="283.9" r="3" fill="black"/><circle cx="506.0" cy="298.1" r="3" fill="black"/><polyline fill="none" stroke="black" stroke-width="1.3" points="62.0,31.0 140.4,36.1 192.3,45.8 231.5,60.5 270.7,85.6 309.9,123.3 349.1,170.7 388.4,218.3 427.6,256.5 466.8,282.0 506.0,297.0"/><circle cx="62.0" cy="31.0" r="3" fill="black"/><circle cx="140.4" cy="36.1" r="3" fill="black"/><circle cx="192.3" cy="45.8" r="3" fill="black"/><circle cx="231.5" cy="60.5" r="3" fill="black"/><circle cx="270.7" cy="85.6" r="3" fill="black"/><circle cx="309.9" cy="123.3" r="3" fill="black"/><circle cx="349.1" cy="170.7" r="3" fill="black"/><circle cx="388.4" cy="218.3" r="3" fill="black"/><circle cx="427.6" cy="256.5" r="3" fill="black"/><circle cx="466.8" cy="282.0" r="3" fill="black"/><circle cx="506.0" cy="297.0" r="3" fill="black"/><polyline fill="none" stroke="#888" stroke-width="1.3" stroke-dasharray="6 4" points="62.0,32.4 140.4,37.9 192.3,48.1 231.5,63.5 270.7,89.6 309.9,128.3 349.1,175.9 388.4,222.7 427.6,259.6 466.8,283.9 506.0,298.1"/><polyline fill="none" stroke="#888" stroke-width="1.3" stroke-dasharray="6 4" points="62.0,31.0 140.4,36.1 192.3,45.8 231.5,60.5 270.7,85.6 309.9,123.4 349.1,170.7 388.4,218.3 427.6,256.5 466.8,282.0 506.0,297.1"/><line x1="356" y1="28" x2="382" y2="28" stroke="black" stroke-width="2"/><text x="388" y="32" font-size="12" font-family="Georgia,'Times New Roman',serif">probe r=40 (engine E3)</text><line x1="356" y1="46" x2="382" y2="46" stroke="black" stroke-width="1.3"/><text x="388" y="50" font-size="12" font-family="Georgia,'Times New Roman',serif">probe r=80 (engine E3)</text><line x1="356" y1="64" x2="382" y2="64" stroke="#888" stroke-width="1.3" stroke-dasharray="6 4"/><text x="388" y="68" font-size="12" font-family="Georgia,'Times New Roman',serif">w/(w+D0) scaling</text><text x="284" y="350" text-anchor="middle" font-size="14" font-family="Georgia,'Times New Roman',serif">background determinacy D0 (log scale)</text><text x="16" y="164" text-anchor="middle" font-size="14" font-family="Georgia,'Times New Roman',serif" transform="rotate(-90 16 164)">frame co-rotation rate  omega_u / Omega_shell</text></svg>