<svg xmlns="http://www.w3.org/2000/svg" width="520" height="608" viewBox="0 0 520 608"><rect width="520" height="608" fill="white"/><g transform="translate(0,0)"><rect width="520" height="300" fill="white"/><rect x="0.5" y="0.5" width="519" height="299" fill="none" stroke="black" stroke-width="1"/><circle cx="260.0" cy="150.0" r="39.3" fill="#ccc" stroke="black" stroke-width="1"/><polyline fill="none" stroke="black" stroke-width="0.9" opacity="0.85" points="340.2,149.9 340.0,143.3 339.3,136.7 338.2,130.2 336.6,123.8 334.7,117.6 332.3,111.5 329.6,105.6 326.5,100.0 323.1,94.6 319.4,89.5 315.4,84.6 311.2,80.1 306.7,75.9 302.1,71.9 297.3,68.3 292.3,65.1 287.3,62.1 282.1,59.5 276.9,57.2 271.5,55.2 266.2,53.5 260.9,52.1 255.5,51.0 250.2,50.2 244.9,49.7 239.7,49.5 234.5,49.5 229.4,49.7 224.3,50.2 219.4,50.9 214.5,51.9 209.8,53.1 205.1,54.5 200.6,56.1 196.2,57.8 191.9,59.8 187.8,61.9 183.8,64.2 180.0,66.6 176.2,69.2 172.7,72.0 169.3,74.8 166.0,77.8 162.9,80.9 160.0,84.2 157.2,87.5 154.6,90.9 152.2,94.4 149.9,98.0 147.8,101.7 145.9,105.5 144.2,109.3 142.6,113.2 141.2,117.1 139.9,121.1 138.9,125.1 138.0,129.2 137.3,133.2 136.8,137.3 136.4,141.5 136.3,145.6 136.3,149.8 136.5,153.9 136.9,158.1 137.4,162.2 138.2,166.3 139.1,170.4 140.2,174.5 141.5,178.5 143.0,182.5 144.6,186.4 146.5,190.3 148.5,194.1 150.7,197.9 153.1,201.6 155.6,205.1 158.3,208.6 161.2,212.0 164.3,215.3 167.6,218.5 171.0,221.6 174.6,224.5 178.3,227.3 182.3,229.9 186.4,232.4 190.6,234.7 195.0,236.9 199.5,238.8 204.2,240.5 209.0,242.1 213.9,243.4 219.0,244.5 224.1,245.3 229.4,245.9 234.7,246.2 240.2,246.3 245.7,246.1 251.2,245.5 256.8,244.7 262.4,243.6 267.9,242.1 273.5,240.3 279.0,238.1 284.5,235.7 289.8,232.8 295.0,229.7 300.1,226.1 305.0,222.3 309.7,218.1 314.2,213.5 318.4,208.7 322.3,203.6 325.9,198.1 329.1,192.5 332.0,186.6 334.5,180.5 336.6,174.2 338.2,167.8 339.4,161.3 340.2,154.7 340.6,148.1 340.4,141.6 339.9,135.0 338.9,128.6 337.5,122.2 335.8,116.0 333.6,110.0 331.1,104.2 328.2,98.6 325.1,93.2 321.7,88.1 318.0,83.3 314.0,78.7 309.9,74.4 305.5,70.4 301.0,66.7 296.4,63.3 291.6,60.2 286.8,57.4 281.8,54.9 276.8,52.7 271.8,50.8 266.7,49.1 261.6,47.8 256.5,46.7 251.4,45.8 246.4,45.2 241.4,44.9 236.4,44.8 231.5,44.9 226.6,45.3 221.9,45.9 217.2,46.7 212.6,47.7 208.1,48.9 203.7,50.3 199.4,51.9 195.2,53.6 191.1,55.5 187.2,57.6 183.3,59.8 179.7,62.2 176.1,64.8 172.7,67.4 169.4,70.2 166.3,73.2 163.3,76.2 160.5,79.4 157.8,82.6 155.2,86.0 152.9,89.4 150.7,93.0 148.6,96.6 146.7,100.3 145.0,104.1 143.5,107.9 142.1,111.8 140.8,115.8 139.8,119.8 139.0,123.9 138.3,128.0 137.7,132.1 137.4,136.2 137.3,140.4 137.3,144.6 137.5,148.8 137.9,153.0 138.5,157.2 139.3,161.4 140.2,165.6 141.4,169.7 142.7,173.8 144.3,177.9 146.0,182.0 147.9,185.9 150.0,189.9 152.3,193.7 154.8,197.5 157.4,201.2 160.3,204.8 163.4,208.4 166.6,211.8 170.1,215.0 173.7,218.2 177.5,221.2 181.5,224.1 185.6,226.8 190.0,229.3 194.5,231.6 199.2,233.8 204.0,235.7 209.0,237.4 214.1,238.9 219.3,240.1 224.7,241.1 230.2,241.8 235.8,242.2 241.5,242.3 247.2,242.1 253.0,241.6 258.8,240.7 264.6,239.5 270.5,237.9 276.2,236.0 281.9,233.7 287.6,231.0 293.0,228.0 298.4,224.6 303.6,220.8 308.5,216.7 313.2,212.3 317.6,207.5 321.8,202.4 325.5,197.0 329.0,191.4 332.0,185.5 334.7,179.4 336.9,173.2 338.7,166.9 340.1,160.4 341.1,153.9 341.6,147.4 341.6,140.9 341.3,134.4 340.5,128.1 339.4,121.8 337.9,115.7 336.0,109.7 333.8,103.9 331.2,98.4 328.4,93.0 325.3,87.9 321.9,83.0 318.3,78.4 314.5,74.0 310.6,70.0 306.4,66.1 302.1,62.6 297.7,59.3 293.2,56.3 288.6,53.5 283.9,51.1 279.1,48.9 274.3,46.9 269.5,45.2 264.7,43.8 259.8,42.6 254.9,41.7 250.1,41.0 245.3,40.5 240.5,40.2 235.8,40.2 231.1,40.4 226.5,40.8 222.0,41.4 217.5,42.2 213.1,43.2 208.8,44.4 204.5,45.8 200.4,47.3 196.3,49.0 192.4,50.9 188.6,52.9 184.9,55.1 181.3,57.4 177.9,59.8 174.5,62.4 171.3,65.2 168.3,68.0 165.3,71.0 162.5,74.1 159.9,77.3 157.4,80.6 155.0,84.1 152.8,87.6 150.8,91.2 148.9,94.9 147.2,98.6 145.6,102.5 144.2,106.4 143.0,110.4 141.9,114.4 141.1,118.5 140.3,122.6 139.8,126.8 139.5,131.0 139.3,135.2 139.3,139.5 139.6,143.8 140.0,148.1 140.6,152.4 141.3,156.7 142.3,161.0 143.5,165.3 144.9,169.5 146.5,173.7 148.3,177.9 150.3,182.1 152.5,186.1 154.9,190.1 157.5,194.1 160.3,197.9 163.3,201.7 166.6,205.3 170.0,208.9 173.7,212.3 177.5,215.5 181.6,218.6 185.8,221.6 190.3,224.3 194.9,226.9 199.7,229.2 204.7,231.4 209.8,233.3 215.2,234.9 220.6,236.3 226.2,237.4 231.9,238.1 237.8,238.6 243.7,238.8 249.7,238.6 255.7,238.0 261.7,237.1 267.8,235.8 273.8,234.1 279.7,232.0 285.6,229.6 291.4,226.7 296.9,223.5 302.3,219.9 307.5,215.9 312.4,211.6 317.1,206.9 321.4,201.9 325.4,196.6 329.0,191.1 332.3,185.3 335.1,179.4 337.5,173.3 339.6,167.0 341.2,160.7 342.3,154.3 343.1,147.9 343.4,141.6 343.4,135.2 342.9,129.0 342.1,122.8 340.9,116.7 339.3,110.8 337.5,105.1 335.3,99.6 332.8,94.2 330.1,89.0 327.1,84.1 323.9,79.4 320.6,75.0 317.0,70.7 313.2,66.8 309.3,63.0 305.3,59.5 301.1,56.3 296.8,53.3 292.5,50.6 288.1,48.1 283.6,45.8 279.0,43.8 274.4,42.0 269.8,40.5 265.2,39.1 260.6,38.1 256.0,37.2 251.3,36.6 246.7,36.1 242.2,35.9 237.6,35.9 233.1,36.1 228.7,36.5 224.3,37.1 220.0,37.8 215.7,38.8 211.5,39.9 207.4,41.2 203.4,42.7 199.5,44.3 195.6,46.1 191.9,48.1 188.3,50.2 184.7,52.4 181.3,54.8 178.0,57.4 174.8,60.0 171.8,62.9 168.9,65.8 166.1,68.8 163.4,72.0 160.9,75.3 158.5,78.7 156.3,82.2 154.2,85.8 152.3,89.5 150.5,93.3 148.9,97.1 147.5,101.1 146.2,105.1 145.1,109.2 144.2,113.3 143.4,117.5 142.9,121.8 142.5,126.1 142.3,130.4 142.3,134.8 142.5,139.2 142.9,143.7 143.5,148.1 144.3,152.6 145.3,157.0 146.5,161.5 147.9,165.9 149.6,170.3 151.4,174.6 153.5,178.9 155.8,183.2 158.4,187.4 161.1,191.5 164.1,195.5 167.3,199.4 170.8,203.2 174.4,206.9 178.3,210.4 182.4,213.8 186.8,217.0 191.3,220.0 196.1,222.8 201.0,225.3 206.2,227.7 211.5,229.7 217.0,231.5 222.7,233.0 228.5,234.2 234.4,235.1 240.5,235.6 246.6,235.8 252.8,235.6 259.1,235.0 265.3,234.0 271.5,232.6 277.7,230.8 283.8,228.6 289.7,226.0 295.5,223.0 301.1,219.5 306.5,215.7 311.7,211.6 316.5,207.1 321.1,202.3 325.3,197.2 329.1,191.8 332.6,186.3 335.7,180.5 338.3,174.6 340.6,168.5 342.5,162.3 343.9,156.1 345.0,149.9 345.6,143.7 345.9,137.5 345.8,131.3 345.3,125.3 344.5,119.3 343.4,113.5 341.9,107.8 340.2,102.3 338.2,96.9 335.9,91.8 333.4,86.8 330.6,82.0 327.7,77.4 324.5,73.1 321.2,68.9 317.7,65.0 314.1,61.3 310.3,57.8 306.4,54.5 302.4,51.5 298.3,48.7 294.2,46.1 289.9,43.8 285.7,41.7 281.3,39.8 276.9,38.1 272.5,36.6 268.1,35.3 263.7,34.3 259.2,33.4 254.8,32.8 250.4,32.3 246.0,32.1 241.6,32.1 237.2,32.2 232.9,32.5 228.6,33.1 224.4,33.8 220.3,34.6 216.2,35.7 212.1,36.9 208.2,38.3 204.3,39.9 200.5,41.6 196.8,43.5 193.2,45.5 189.7,47.7 186.2,50.1 182.9,52.6 179.7,55.2 176.7,57.9 173.7,60.8 170.9,63.9 168.1,67.0 165.6,70.3 163.1,73.7 160.8,77.2 158.7,80.8 156.7,84.5 154.8,88.3 153.2,92.2 151.6,96.2 150.3,100.3 149.1,104.5 148.1,108.7 147.3,113.0 146.7,117.4 146.2,121.8 146.0,126.3 146.0,130.8 146.1,135.4 146.5,140.0 147.1,144.6 147.9,149.3 148.9,153.9 150.2,158.5 151.6,163.1 153.4,167.7 155.3,172.3 157.5,176.8 159.9,181.3 162.6,185.6 165.5,189.9 168.7,194.1 172.1,198.2 175.8,202.2 179.8,206.0 183.9,209.6 188.3,213.0 193.0,216.3 197.8,219.3 202.9,222.1 208.2,224.7 213.7,226.9 219.4,228.9 225.3,230.5 231.3,231.8 237.5,232.7 243.7,233.3 250.0,233.4 256.4,233.2 262.8,232.6 269.2,231.5 275.6,230.0 281.8,228.1 288.0,225.8 294.0,223.0 299.8,219.9 305.4,216.4 310.7,212.5 315.8,208.2 320.5,203.7 324.9,198.8 329.0,193.7 332.7,188.4 336.1,182.9 339.0,177.2 341.6,171.4 343.8,165.4 345.6,159.4 347.0,153.4 348.0,147.4 348.7,141.4 349.0,135.4 349.0,129.4 348.6,123.6 347.9,117.9 346.9,112.2 345.6,106.7 344.1,101.4 342.3,96.2 340.3,91.2 338.0,86.3 335.5,81.6 332.8,77.1 330.0,72.8 326.9,68.7 323.7,64.8 320.4,61.1 316.9,57.6 313.3,54.2 309.6,51.1 305.8,48.2 301.9,45.6 298.0,43.1 293.9,40.8 289.8,38.7 285.7,36.9 281.5,35.2 277.2,33.7 273.0,32.5 268.7,31.4 264.4,30.5 260.1,29.8 255.8,29.4 251.5,29.0 247.3,28.9 243.0,29.0 238.8,29.3 234.6,29.7 230.5,30.3 226.4,31.1 222.3,32.1 218.3,33.3 214.4,34.6 210.5,36.0 206.7,37.7 203.0,39.5 199.4,41.5 195.8,43.6 192.4,45.9 189.0,48.3 185.7,50.9 182.6,53.6 179.6,56.4 176.6,59.4 173.8,62.6 171.2,65.8 168.6,69.2 166.2,72.7 164.0,76.4 161.9,80.1 159.9,84.0 158.1,88.0 156.5,92.1 155.1,96.2 153.8,100.5 152.7,104.9 151.8,109.3 151.1,113.8 150.6,118.4 150.2,123.1 150.2,127.8 150.3,132.5 150.6,137.3 151.2,142.1 152.0,147.0 153.0,151.8 154.3,156.7 155.9,161.5 157.7,166.3 159.7,171.1 162.0,175.8 164.6,180.5 167.5,185.1 170.6,189.6 174.0,194.0 177.7,198.2 181.6,202.3 185.8,206.2 190.3,209.9 195.0,213.4 200.0,216.7 205.2,219.7 210.7,222.4 216.4,224.8 222.2,226.9 228.2,228.6 234.4,230.0 240.7,231.0 247.1,231.6 253.6,231.8 260.1,231.5 266.6,230.8 273.1,229.7 279.5,228.2 285.8,226.2 292.0,223.8 298.0,221.0 303.8,217.8 309.3,214.2 314.6,210.3 319.5,206.1 324.2,201.6 328.5,196.8 332.5,191.8 336.2,186.6 339.4,181.2 342.3,175.6 344.9,170.0 347.0,164.3 348.8,158.5 350.3,152.7 351.4,146.9 352.2,141.1 352.6,135.3 352.7,129.6 352.5,124.0 352.0,118.5 351.3,113.0 350.2,107.7 348.9,102.5 347.4,97.4 345.7,92.5 343.7,87.7 341.5,83.1 339.1,78.6 336.6,74.3 333.9,70.2 331.0,66.3 328.0,62.5 324.8,59.0 321.5,55.6 318.1,52.4 314.6,49.4 311.0,46.5 307.2,43.9 303.5,41.4 299.6,39.2 295.7,37.1 291.7,35.2 287.7,33.5 283.6,32.1 279.5,30.7 275.3,29.6 271.2,28.7 267.0,27.9 262.8,27.4 258.6,27.0 254.4,26.8 250.3,26.8 246.1,26.9 242.0,27.3 237.8,27.8 233.8,28.5 229.7,29.3 225.7,30.4 221.8,31.6 217.9,33.0 214.0,34.5 210.3,36.3 206.6,38.1 203.0,40.2 199.4,42.4 196.0,44.8 192.6,47.3 189.4,50.0 186.2,52.8 183.2,55.8 180.2,58.9 177.4,62.2 174.8,65.6 172.2,69.1 169.8,72.8 167.6,76.6 165.5,80.6 163.6,84.6 161.8,88.8 160.2,93.1 158.8,97.5 157.6,102.0 156.6,106.6 155.8,111.2 155.2,116.0 154.8,120.9 154.6,125.8 154.7,130.7 155.0,135.7 155.6,140.8 156.4,145.9 157.5,150.9 158.8,156.0 160.4,161.1 162.3,166.2 164.5,171.2 167.0,176.1 169.7,181.0 172.8,185.8 176.1,190.5 179.8,195.0 183.7,199.4 188.0,203.5 192.5,207.5 197.3,211.2 202.4,214.7 207.7,217.9 213.3,220.8 219.1,223.4 225.0,225.6 231.2,227.5 237.5,228.9 244.0,230.0 250.5,230.6 257.0,230.8 263.6,230.5 270.2,229.8 276.7,228.7 283.1,227.2 289.4,225.2 295.5,222.8 301.5,220.0 307.2,216.8 312.7,213.3 317.9,209.5 322.8,205.4 327.4,201.0 331.6,196.4 335.6,191.5 339.2,186.5 342.5,181.3 345.4,176.0 348.0,170.6 350.2,165.2 352.1,159.6 353.7,154.1 354.9,148.5 355.9,142.9 356.5,137.4 356.8,131.9 356.9,126.5 356.6,121.1 356.2,115.9 355.4,110.7 354.4,105.6 353.2,100.6 351.8,95.8 350.1,91.1 348.3,86.5 346.2,82.1 344.0,77.8 341.6,73.7 339.1,69.7 336.4,65.9 333.5,62.2 330.6,58.7 327.5,55.4 324.2,52.2 320.9,49.3 317.5,46.4 313.9,43.8 310.3,41.4 306.6,39.1 302.9,37.0 299.0,35.0 295.1,33.3 291.2,31.7 287.2,30.3 283.2,29.1 279.1,28.1 275.0,27.2 270.9,26.5 266.8,26.1 262.7,25.7 258.5,25.6 254.4,25.6 250.3,25.9 246.2,26.3 242.1,26.8 238.0,27.6 234.0,28.5 230.0,29.6 226.0,30.9 222.1,32.3 218.3,34.0 214.5,35.8 210.8,37.7 207.1,39.9 203.5,42.2 200.0,44.7 196.6,47.3 193.4,50.1 190.2,53.0 187.1,56.2 184.1,59.4 181.3,62.9 178.6,66.5 176.0,70.2 173.6,74.1 171.3,78.1 169.2,82.2 167.3,86.5 165.6,90.9 164.0,95.5 162.7,100.1 161.5,104.9 160.6,109.7 159.9,114.7 159.4,119.8 159.2,124.9 159.2,130.1 159.5,135.3 160.0,140.6 160.9,146.0 162.0,151.3 163.4,156.6 165.1,162.0 167.1,167.3 169.4,172.5 172.1,177.7 175.0,182.7 178.3,187.7 182.0,192.5 185.9,197.1 190.1,201.6 194.7,205.8 199.5,209.8 204.6,213.5 210.0,216.9 215.7,219.9 221.6,222.6 227.6,225.0 233.9,226.9 240.3,228.5 246.8,229.6 253.3,230.3 259.9,230.5 266.5,230.3 273.1,229.7 279.6,228.6 286.0,227.1 292.2,225.2 298.3,222.9 304.2,220.2 309.8,217.2 315.3,213.8 320.4,210.2 325.3,206.2 329.8,202.1 334.1,197.7 338.1,193.1 341.7,188.3 345.0,183.4 348.0,178.4 350.7,173.3 353.1,168.1 355.1,162.8 356.9,157.5 358.3,152.2 359.5,146.9 360.4,141.6 361.0,136.3 361.3,131.1 361.4,125.9 361.2,120.8 360.8,115.8 360.2,110.8 359.3,105.9 358.2,101.2 356.9,96.5 355.4,92.0 353.7,87.6 351.9,83.3 349.8,79.1 347.6,75.1 345.3,71.2 342.8,67.4 340.1,63.8 337.3,60.3 334.4,57.0 331.4,53.9 328.2,50.9 325.0,48.0 321.6,45.4 318.2,42.9 314.6,40.5 311.0,38.3 307.3,36.3 303.6,34.5 299.7,32.8 295.8,31.3 291.9,30.0 287.9,28.8 283.9,27.8 279.9,27.0 275.8,26.4 271.7,25.9 267.6,25.7 263.4,25.6 259.3,25.6 255.1,25.9 251.0,26.3 246.9,26.9 242.8,27.7 238.7,28.7 234.7,29.9 230.7,31.2 226.7,32.7 222.8,34.4 218.9,36.3 215.1,38.4 211.4,40.6 207.8,43.0 204.2,45.6 200.7,48.4 197.3,51.3 194.1,54.4 190.9,57.7 187.9,61.1 185.0,64.8 182.2,68.5 179.6,72.5 177.1,76.6 174.9,80.9 172.8,85.3 170.8,89.8 169.1,94.5 167.6,99.4 166.3,104.3 165.3,109.4 164.5,114.5 163.9,119.8 163.6,125.2 163.6,130.6 163.8,136.1 164.4,141.7 165.2,147.2 166.4,152.8 167.9,158.4 169.7,164.0 171.9,169.5 174.4,174.9 177.3,180.3 180.4,185.5 184.0,190.6 187.9,195.5 192.1,200.2 196.6,204.6 201.5,208.8 206.6,212.7 212.1,216.3 217.7,219.6 223.6,222.4 229.7,224.9 236.0,227.0 242.4,228.6 248.9,229.8 255.4,230.6 262.0,230.9 268.6,230.8 275.1,230.3 281.6,229.4 287.9,228.0 294.1,226.3 300.1,224.1 305.9,221.6 311.5,218.8 316.8,215.7 322.0,212.3 326.8,208.7 331.4,204.8 335.7,200.7 339.7,196.4 343.4,191.9 346.9,187.3 350.0,182.6 352.9,177.8 355.4,172.9 357.7,167.9 359.7,162.9 361.3,157.9 362.8,152.8 364.0,147.8 364.9,142.7 365.5,137.7 365.9,132.7 366.1,127.8 366.0,122.9 365.7,118.0 365.2,113.3 364.5,108.6 363.6,104.0 362.5,99.4 361.2,95.0 359.7,90.7 358.0,86.5 356.2,82.4 354.2,78.4 352.0,74.6 349.7,70.9 347.3,67.3 344.7,63.8 341.9,60.5 339.1,57.3 336.1,54.3 333.0,51.4 329.9,48.6 326.6,46.0 323.2,43.6 319.7,41.3 316.1,39.2 312.5,37.2 308.8,35.4 305.0,33.7 301.1,32.3 297.2,31.0 293.2,29.8 289.2,28.9 285.2,28.1 281.1,27.4 276.9,27.0 272.8,26.7 268.6,26.7 264.4,26.7 260.2,27.0 256.0,27.5 251.9,28.1 247.7,29.0 243.5,30.0 239.4,31.2 235.3,32.6 231.2,34.1 227.2,35.9 223.2,37.9 219.3,40.0 215.5,42.4 211.7,44.9 208.0,47.6 204.4,50.5 200.9,53.6 197.6,56.9 194.3,60.4 191.2,64.1 188.2,67.9 185.4,71.9 182.7,76.1 180.2,80.5 177.9,85.0 175.8,89.7 173.9,94.6 172.2,99.6 170.8,104.8 169.6,110.0 168.6,115.4 168.0,120.9 167.6,126.6 167.6,132.2 167.8,138.0 168.4,143.8 169.3,149.6 170.6,155.5 172.2,161.3 174.1,167.1 176.5,172.8 179.2,178.4 182.3,183.9 185.7,189.2 189.5,194.3 193.6,199.2 198.1,203.9 203.0,208.3 208.1,212.4 213.5,216.2 219.1,219.6 225.0,222.6 231.0,225.2 237.3,227.4 243.6,229.2 250.0,230.6 256.5,231.5 263.0,232.0 269.5,232.1 275.9,231.8 282.3,231.0 288.5,229.9 294.6,228.4 300.6,226.5 306.3,224.3 311.9,221.8 317.2,219.0 322.3,215.9 327.2,212.6 331.8,209.0 336.2,205.3 340.3,201.4 344.2,197.3 347.7,193.0 351.0,188.6 354.1,184.2 356.8,179.6 359.4,174.9 361.6,170.2 363.6,165.5 365.3,160.7 366.8,155.9 368.0,151.1 369.0,146.2 369.8,141.4 370.3,136.7 370.7,131.9 370.8,127.2 370.6,122.5 370.3,117.9 369.8,113.4 369.0,108.9 368.1,104.5 367.0,100.2 365.7,95.9 364.3,91.8 362.7,87.7 360.9,83.8 358.9,79.9 356.8,76.2 354.6,72.6 352.2,69.1 349.7,65.7 347.0,62.5 344.2,59.4 341.3,56.4 338.3,53.5 335.1,50.8 331.9,48.2 328.6,45.8 325.1,43.6 321.6,41.4 317.9,39.5 314.2,37.7 310.4,36.0 306.6,34.5 302.7,33.2 298.7,32.1 294.6,31.1 290.5,30.3 286.4,29.6 282.2,29.2 278.0,28.9 273.8,28.8 269.5,28.9 265.2,29.2 260.9,29.6 256.6,30.3 252.3,31.1 248.0,32.2 243.7,33.4 239.5,34.9 235.3,36.5 231.1,38.4 227.0,40.4 223.0,42.7 219.0,45.1 215.0,47.8 211.2,50.7 207.5,53.8 203.9,57.1 200.4,60.6 197.0,64.2 193.8,68.1 190.7,72.3 187.8,76.5 185.1,81.0 182.5,85.7 180.2,90.6 178.1,95.6 176.3,100.8 174.7,106.1 173.4,111.6 172.3,117.3 171.6,123.0 171.2,128.9 171.1,134.8 171.4,140.8 172.0,146.8 173.0,152.9 174.3,158.9 176.1,164.9 178.2,170.9 180.7,176.7 183.6,182.5 186.9,188.0 190.6,193.4 194.6,198.5 199.0,203.4 203.7,208.0 208.7,212.3 214.0,216.2 219.6,219.8 225.3,223.0 231.3,225.8 237.4,228.2 243.6,230.2 249.9,231.8 256.3,232.9 262.7,233.6 269.0,234.0 275.3,233.9 281.6,233.4 287.7,232.6 293.7,231.4 299.6,229.9 305.3,228.0 310.8,225.9 316.2,223.4 321.3,220.7 326.2,217.8 330.9,214.7 335.4,211.3 339.6,207.8 343.6,204.1 347.3,200.2 350.8,196.2 354.1,192.1 357.1,187.9 359.9,183.6 362.4,179.2 364.7,174.7 366.7,170.2 368.6,165.7 370.2,161.1 371.5,156.5 372.6,151.9 373.6,147.3 374.3,142.7 374.8,138.2 375.0,133.6 375.1,129.1 375.0,124.6 374.7,120.2 374.2,115.8 373.5,111.5 372.6,107.2 371.5,103.0 370.3,98.9 368.9,94.9 367.4,90.9 365.6,87.1 363.7,83.3 361.7,79.7 359.5,76.1 357.2,72.7 354.7,69.3 352.1,66.1 349.4,63.0 346.5,60.0 343.5,57.2 340.4,54.5 337.2,51.9 333.9,49.4 330.5,47.1 327.0,45.0 323.3,43.0 319.6,41.1 315.8,39.4 311.9,37.9 307.9,36.5 303.9,35.3 299.8,34.3 295.6,33.5 291.4,32.8 287.1,32.3 282.8,32.0 278.5,31.9 274.1,31.9 269.6,32.2 265.2,32.7 260.8,33.3 256.3,34.2 251.9,35.3 247.4,36.6 243.0,38.1 238.6,39.8 234.3,41.7 230.0,43.9 225.7,46.2 221.6,48.8 217.5,51.7 213.5,54.7 209.6,58.0 205.8,61.5 202.2,65.2 198.7,69.2 195.4,73.4 192.2,77.8 189.3,82.4 186.5,87.2 184.0,92.2 181.7,97.4 179.7,102.8 178.0,108.3 176.5,114.0 175.4,119.9 174.6,125.9 174.2,131.9 174.1,138.1 174.4,144.3 175.0,150.6 176.1,156.8 177.6,163.0 179.5,169.2 181.8,175.2 184.5,181.2 187.6,186.9 191.0,192.5 194.9,197.8 199.1,202.9 203.6,207.7 208.5,212.2 213.6,216.4 219.0,220.1 224.6,223.5 230.3,226.6 236.3,229.2 242.3,231.4 248.5,233.2 254.6,234.6 260.9,235.6 267.1,236.3 273.2,236.5 279.3,236.4 285.4,235.9 291.3,235.1 297.1,234.0 302.7,232.6 308.2,230.8 313.5,228.8 318.7,226.6 323.7,224.1 328.4,221.3 333.0,218.4 337.3,215.3 341.5,212.0 345.4,208.6 349.1,205.0 352.6,201.3 355.9,197.4 358.9,193.5 361.7,189.4 364.3,185.3 366.7,181.2 368.9,176.9 370.8,172.6 372.5,168.3 374.0,163.9 375.4,159.5 376.5,155.1 377.4,150.7 378.1,146.3 378.5,141.9 378.8,137.5 378.9,133.1 378.9,128.8 378.6,124.5 378.1,120.2 377.5,116.0 376.7,111.9 375.7,107.8 374.5,103.7 373.2,99.8 371.7,95.9 370.1,92.1 368.3,88.3 366.3,84.7 364.2,81.2 361.9,77.7 359.5,74.3 357.0,71.1 354.3,68.0 351.4,65.0 348.5,62.1 345.4,59.3 342.2,56.7 338.9,54.2 335.5,51.8 331.9,49.6 328.3,47.5 324.5,45.6 320.7,43.8 316.7,42.2 312.7,40.8 308.6,39.5 304.4,38.4 300.1,37.5 295.8,36.7 291.4,36.2 286.9,35.8 282.4,35.7 277.9,35.7 273.3,35.9 268.7,36.4 264.1,37.1 259.4,37.9 254.8,39.0 250.2,40.4 245.5,41.9 240.9,43.7 236.4,45.8 231.9,48.0 227.5,50.6 223.1,53.3 218.8,56.3 214.6,59.6 210.6,63.1 206.7,66.9 202.9,70.8 199.3,75.1 195.9,79.6 192.7,84.3 189.7,89.2 187.0,94.4 184.6,99.8 182.4,105.3 180.5,111.1 179.0,117.0 177.8,123.1 176.9,129.2 176.5,135.5 176.4,141.9 176.7,148.2 177.5,154.7 178.6,161.0 180.2,167.4 182.2,173.6 184.7,179.7 187.5,185.7 190.7,191.4 194.3,197.0 198.3,202.2 202.6,207.2 207.2,211.9 212.1,216.3 217.2,220.3 222.5,223.9 228.1,227.2 233.8,230.1 239.6,232.6 245.5,234.7 251.4,236.4 257.4,237.8 263.4,238.8 269.4,239.4 275.4,239.7 281.3,239.7 287.1,239.3 292.8,238.6 298.4,237.6 303.8,236.4 309.1,234.8 314.3,233.0 319.3,231.0 324.1,228.8 328.8,226.3 333.3,223.7 337.6,220.8 341.7,217.8 345.6,214.7 349.3,211.4 352.8,208.0 356.1,204.4 359.2,200.8 362.2,197.0 364.9,193.2 367.4,189.2 369.7,185.2 371.8,181.2 373.7,177.0 375.4,172.9 376.9,168.7 378.2,164.5 379.3,160.2 380.2,156.0 381.0,151.7 381.5,147.4 381.8,143.2 382.0,138.9 382.0,134.7 381.8,130.5 381.4,126.3 380.9,122.2 380.1,118.1 379.2,114.1 378.2,110.1 376.9,106.1 375.5,102.2 373.9,98.4 372.2,94.7 370.3,91.0 368.3,87.4 366.1,84.0 363.7,80.6 361.2,77.3 358.6,74.1 355.8,71.0 352.9,68.0 349.8,65.2 346.6,62.4 343.3,59.8 339.8,57.4 336.3,55.1 332.6,52.9 328.8,50.8 324.9,49.0 320.8,47.2 316.7,45.7 312.5,44.3 308.2,43.1 303.8,42.1 299.3,41.3 294.8,40.6 290.1,40.2 285.5,40.0 280.7,40.0 276.0,40.2 271.2,40.6 266.3,41.3 261.5,42.2 256.6,43.3 251.7,44.7 246.9,46.3 242.1,48.2 237.3,50.4 232.6,52.8 227.9,55.5 223.4,58.4 218.9,61.6 214.6,65.1 210.4,68.9 206.3,72.9 202.5,77.2 198.8,81.8 195.4,86.6 192.2,91.7 189.3,97.0 186.7,102.5 184.3,108.3 182.3,114.2 180.7,120.3 179.4,126.5 178.6,132.8 178.1,139.3 178.1,145.8 178.4,152.3 179.2,158.8 180.5,165.2 182.1,171.6 184.2,177.9 186.7,184.0 189.6,189.9 192.9,195.6 196.5,201.1 200.5,206.3 204.8,211.2 209.3,215.7 214.1,220.0 219.2,223.9 224.4,227.5 229.8,230.6 235.3,233.5 240.9,236.0 246.6,238.1 252.4,239.8 258.2,241.2 263.9,242.3 269.7,243.0 275.4,243.4 281.1,243.5 286.7,243.3 292.2,242.9 297.6,242.1 302.9,241.1 308.0,239.8 313.1,238.3 318.0,236.5 322.7,234.6 327.3,232.4 331.7,230.1 336.0,227.6 340.1,224.9 344.0,222.0 347.8,219.0 351.3,215.9 354.7,212.7 357.9,209.3 361.0,205.8 363.8,202.3 366.5,198.6 368.9,194.8 371.2,191.0 373.3,187.2 375.2,183.2 376.9,179.2 378.5,175.2 379.8,171.1 381.0,167.0 382.0,162.9 382.8,158.7 383.4,154.6 383.8,150.4 384.1,146.2 384.2,142.1 384.1,137.9 383.8,133.8 383.3,129.7 382.7,125.6 381.9,121.6 380.9,117.6 379.8,113.6 378.5,109.7 377.0,105.9 375.3,102.1 373.5,98.4 371.5,94.7 369.4,91.2 367.1,87.7 364.7,84.3 362.1,81.0 359.3,77.8 356.4,74.7 353.4,71.7 350.2,68.9 346.8,66.1 343.3,63.5 339.7,61.1 336.0,58.8 332.1,56.6 328.1,54.6 324.0,52.7 319.8,51.0 315.5,49.5 311.0,48.2 306.5,47.1 301.8,46.1 297.1,45.4 292.3,44.9 287.4,44.6 282.5,44.5 277.5,44.7 272.5,45.1 267.4,45.8 262.3,46.7 257.2,47.9 252.1,49.3 247.0,51.0 241.9,53.0 236.9,55.3 232.0,57.9 227.2,60.8 222.4,64.0 217.8,67.4 213.3,71.2 209.0,75.3 204.9,79.6 201.0,84.2 197.3,89.1 193.9,94.3 190.8,99.7 188.0,105.4 185.6,111.2 183.5,117.3 181.7,123.5 180.4,129.9 179.5,136.3 179.0,142.9 179.0,149.4 179.4,156.0 180.2,162.6 181.4,169.0 183.1,175.4 185.2,181.7 187.7,187.7 190.6,193.6 193.8,199.2 197.4,204.6 201.3,209.7 205.5,214.5 209.9,219.0 214.5,223.2 219.4,227.1 224.4,230.6 229.6,233.8 234.9,236.6 240.3,239.2 245.7,241.3 251.2,243.2 256.7,244.7 262.3,245.9 267.8,246.8 273.3,247.4 278.7,247.8 284.1,247.8 289.4,247.6 294.6,247.1 299.8,246.3 304.8,245.4 309.7,244.2 314.6,242.7 319.2,241.1 323.8,239.3 328.2,237.3 332.4,235.1 336.6,232.7 340.5,230.2 344.3,227.6 348.0,224.8 351.5,221.8 354.8,218.8 358.0,215.6 361.0,212.3 363.8,208.9 366.4,205.4 368.9,201.8 371.2,198.2 373.4,194.5 375.3,190.7 377.1,186.8 378.7,182.9 380.1,179.0 381.4,175.0 382.5,170.9 383.4,166.9 384.1,162.8 384.6,158.7 385.0,154.6 385.2,150.5 385.2,146.4 385.0,142.2 384.7,138.1 384.2,134.1 383.5,130.0 382.7,126.0 381.6,121.9 380.4,118.0 379.0,114.1 377.5,110.2 375.8,106.4 373.9,102.7 371.8,99.0 369.6,95.4 367.2,91.9 364.6,88.4 361.9,85.1 359.0,81.8 356.0,78.7 352.8,75.7 349.4,72.8 345.9,70.0 342.3,67.4 338.4,64.9 334.5,62.5 330.4,60.4 326.2,58.3 321.8,56.5 317.4,54.8 312.8,53.4 308.1,52.1 303.2,51.1 298.3,50.2 293.3,49.6 288.2,49.2 283.0,49.1 277.8,49.2 272.5,49.6 267.2,50.3 261.8,51.3 256.5,52.5 251.1,54.0 245.8,55.9 240.5,58.0 235.3,60.5 230.2,63.3 225.1,66.4 220.2,69.8 215.5,73.5 210.9,77.6 206.5,82.0 202.4,86.6 198.5,91.6 194.9,96.8 191.6,102.3 188.7,108.1 186.1,114.0 183.9,120.2 182.1,126.5 180.7,132.9 179.8,139.4 179.3,146.0 179.2,152.6 179.5,159.2 180.3,165.7 181.5,172.1 183.1,178.5 185.2,184.7 187.6,190.7 190.3,196.4 193.4,202.0 196.9,207.3 200.6,212.4 204.5,217.2 208.7,221.6 213.2,225.8 217.8,229.7 222.5,233.2 227.4,236.5 232.4,239.4 237.5,242.0 242.7,244.3 247.9,246.3 253.2,248.0 258.4,249.5 263.7,250.6 269.0,251.5 274.2,252.0 279.4,252.4 284.5,252.4 289.6,252.2 294.6,251.8 299.5,251.2 304.3,250.3 309.1,249.3 313.7,248.0 318.2,246.5 322.6,244.8 326.9,243.0 331.0,241.0 335.0,238.8 338.9,236.5 342.7,234.0 346.3,231.4 349.7,228.7 353.0,225.8 356.2,222.8 359.2,219.7 362.0,216.5 364.7,213.2 367.3,209.8 369.6,206.3 371.8,202.7 373.9,199.0 375.7,195.3 377.5,191.5 379.0,187.7 380.4,183.8 381.6,179.8 382.6,175.8 383.4,171.8 384.1,167.7 384.6,163.7 385.0,159.6 385.1,155.5 385.1,151.3 384.9,147.2 384.5,143.1 384.0,139.0 383.3,134.9 382.3,130.8 381.3,126.7 380.0,122.7 378.5,118.7 376.9,114.8 375.1,110.9 373.1,107.1 371.0,103.3 368.7,99.7 366.2,96.1 363.5,92.5 360.6,89.1 357.6,85.8 354.4,82.6 351.0,79.5 347.5,76.5 343.7,73.7 339.9,71.0 335.8,68.5 331.6,66.1 327.3,63.9 322.8,61.9 318.2,60.0 313.4,58.4 308.5,57.0 303.5,55.8 298.4,54.9 293.1,54.1 287.8,53.7 282.4,53.5 276.9,53.6 271.4,54.0 265.8,54.7 260.2,55.7 254.6,57.0 249.0,58.7 243.4,60.7 237.9,63.0 232.5,65.6 227.2,68.6 222.0,72.0 217.0,75.7 212.2,79.7 207.6,84.1 203.2,88.8 199.2,93.8 195.4,99.0 191.9,104.6 188.9,110.3 186.2,116.3 183.8,122.5 181.9,128.8 180.5,135.2 179.4,141.7 178.8,148.3 178.6,154.8 178.9,161.4 179.6,167.8 180.6,174.2 182.1,180.5 184.0,186.6 186.2,192.5 188.8,198.2 191.7,203.7 194.8,209.0 198.3,214.0 202.0,218.8 205.9,223.3 210.0,227.5 214.3,231.4 218.8,235.1 223.3,238.4 228.0,241.5 232.8,244.3 237.7,246.8 242.6,249.0 247.6,250.9 252.6,252.6 257.6,254.0 262.6,255.1 267.7,256.0 272.6,256.6 277.6,257.0 282.5,257.2 287.4,257.1 292.2,256.8 296.9,256.3 301.5,255.6 306.1,254.7 310.6,253.6 315.0,252.3 319.3,250.9 323.5,249.2 327.5,247.4 331.5,245.5 335.3,243.3 339.0,241.0 342.6,238.6 346.1,236.1 349.4,233.4 352.6,230.6 355.6,227.7 358.6,224.6 361.3,221.5 363.9,218.2 366.4,214.9 368.7,211.4 370.9,207.9 372.8,204.3 374.7,200.6 376.4,196.8 377.9,193.0 379.2,189.1 380.4,185.2 381.4,181.2 382.3,177.2 382.9,173.1 383.4,169.0 383.7,164.9 383.9,160.7 383.9,156.5 383.6,152.4 383.3,148.2 382.7,144.0"/><text x="34" y="20" font-size="13" font-family="Georgia,'Times New Roman',serif">rosette configuration: orbit trail</text></g><text x="6" y="16" font-size="14" font-weight="bold" font-family="Georgia,'Times New Roman',serif">(a)</text><g transform="translate(0,308)"><rect width="520" height="300" fill="white"/><defs><pattern id="hat" width="5" height="5" patternTransform="rotate(45)" patternUnits="userSpaceOnUse"><line x1="0" y1="0" x2="0" y2="5" stroke="#555" stroke-width="1.4"/></pattern></defs><line x1="62" y1="199.90379544015983" x2="506" y2="199.90379544015983" stroke="#ddd" stroke-width="0.6"/><line x1="58" y1="199.90379544015983" x2="62" y2="199.90379544015983" stroke="black"/><text x="55" y="203.90379544015983" text-anchor="end" font-size="12" font-family="Georgia,'Times New Roman',serif">-5</text><line x1="62" y1="146.93214358724813" x2="506" y2="146.93214358724813" stroke="#ddd" stroke-width="0.6"/><line x1="58" y1="146.93214358724813" x2="62" y2="146.93214358724813" stroke="black"/><text x="55" y="150.93214358724813" text-anchor="end" font-size="12" font-family="Georgia,'Times New Roman',serif">0</text><line x1="62" y1="93.96049173433641" x2="506" y2="93.96049173433641" stroke="#ddd" stroke-width="0.6"/><line x1="58" y1="93.96049173433641" x2="62" y2="93.96049173433641" stroke="black"/><text x="55" y="97.96049173433641" text-anchor="end" font-size="12" font-family="Georgia,'Times New Roman',serif">5</text><line x1="62" y1="40.98883988142469" x2="506" y2="40.98883988142469" stroke="#ddd" stroke-width="0.6"/><line x1="58" y1="40.98883988142469" x2="62" y2="40.98883988142469" stroke="black"/><text x="55" y="44.98883988142469" text-anchor="end" font-size="12" font-family="Georgia,'Times New Roman',serif">10</text><rect x="62" y="18" width="444" height="224" fill="none" stroke="black" stroke-width="1"/><line x1="62" y1="146.93214358724813" x2="506" y2="146.93214358724813" stroke="black" stroke-width="1"/><rect x="119" y="146.93214358724813" width="31" height="79.61958055068288" fill="#444" stroke="black" stroke-width="0.8"/><text x="134.5" y="240.55172413793102" text-anchor="middle" font-size="11" font-family="Georgia,'Times New Roman',serif">-7.52</text><text x="136" y="258" text-anchor="middle" font-size="12" font-family="Georgia,'Times New Roman',serif">prograde spin</text><text x="136" y="271" text-anchor="middle" font-size="12" font-family="Georgia,'Times New Roman',serif">S=+0.05, kF=1</text><rect x="267" y="33.44827586206897" width="31" height="113.48386772517917" fill="#444" stroke="black" stroke-width="0.8"/><text x="282.5" y="28.448275862068968" text-anchor="middle" font-size="11" font-family="Georgia,'Times New Roman',serif">10.71</text><text x="284" y="258" text-anchor="middle" font-size="12" font-family="Georgia,'Times New Roman',serif">reversed spin</text><text x="284" y="271" text-anchor="middle" font-size="12" font-family="Georgia,'Times New Roman',serif">S=-0.05, kF=1</text><rect x="415" y="146.93214358724813" width="31" height="10.922354390794396" fill="#444" stroke="black" stroke-width="0.8"/><text x="430.5" y="171.85449797804253" text-anchor="middle" font-size="11" font-family="Georgia,'Times New Roman',serif">-1.03</text><text x="432" y="258" text-anchor="middle" font-size="12" font-family="Georgia,'Times New Roman',serif">control</text><text x="432" y="271" text-anchor="middle" font-size="12" font-family="Georgia,'Times New Roman',serif">kF=0</text><rect x="72" y="24" width="14" height="10" fill="#444" stroke="black" stroke-width="0.8"/><text x="90" y="33" font-size="12" font-family="Georgia,'Times New Roman',serif">V6 configuration (a=60, e=0.5)</text><text x="16" y="130" text-anchor="middle" font-size="14" font-family="Georgia,'Times New Roman',serif" transform="rotate(-90 16 130)">periapsis drift (deg/orbit)</text></g><text x="6" y="324" font-size="14" font-weight="bold" font-family="Georgia,'Times New Roman',serif">(b)</text></svg>