<svg xmlns="http://www.w3.org/2000/svg" width="520" height="608" viewBox="0 0 520 608"><rect width="520" height="608" fill="white"/><g transform="translate(0,0)"><rect x="0" y="0" width="520" height="300" fill="white"/><line x1="62" y1="254" x2="506" y2="254" stroke="#ddd" stroke-width="0.6"/><line x1="62" y1="202.15697832481453" x2="506" y2="202.15697832481453" stroke="#ddd" stroke-width="0.6"/><line x1="62" y1="150.31395664962906" x2="506" y2="150.31395664962906" stroke="#ddd" stroke-width="0.6"/><line x1="62" y1="98.47093497444361" x2="506" y2="98.47093497444361" stroke="#ddd" stroke-width="0.6"/><line x1="62" y1="46.62791329925814" x2="506" y2="46.62791329925814" stroke="#ddd" stroke-width="0.6"/><rect x="62" y="14" width="444" height="240" fill="none" stroke="black" stroke-width="1"/><line x1="149.2554245283019" y1="254" x2="149.2554245283019" y2="258" stroke="black"/><text x="149.2554245283019" y="272" text-anchor="middle" font-size="12" font-family="Georgia,'Times New Roman',serif">200</text><line x1="236.51957547169812" y1="254" x2="236.51957547169812" y2="258" stroke="black"/><text x="236.51957547169812" y="272" text-anchor="middle" font-size="12" font-family="Georgia,'Times New Roman',serif">400</text><line x1="323.78372641509435" y1="254" x2="323.78372641509435" y2="258" stroke="black"/><text x="323.78372641509435" y="272" text-anchor="middle" font-size="12" font-family="Georgia,'Times New Roman',serif">600</text><line x1="411.04787735849055" y1="254" x2="411.04787735849055" y2="258" stroke="black"/><text x="411.04787735849055" y="272" text-anchor="middle" font-size="12" font-family="Georgia,'Times New Roman',serif">800</text><line x1="498.3120283018868" y1="254" x2="498.3120283018868" y2="258" stroke="black"/><text x="498.3120283018868" y="272" text-anchor="middle" font-size="12" font-family="Georgia,'Times New Roman',serif">1000</text><line x1="58" y1="254" x2="62" y2="254" stroke="black"/><text x="55" y="258" text-anchor="end" font-size="12" font-family="Georgia,'Times New Roman',serif">0</text><line x1="58" y1="202.15697832481453" x2="62" y2="202.15697832481453" stroke="black"/><text x="55" y="206.15697832481453" text-anchor="end" font-size="12" font-family="Georgia,'Times New Roman',serif">1</text><line x1="58" y1="150.31395664962906" x2="62" y2="150.31395664962906" stroke="black"/><text x="55" y="154.31395664962906" text-anchor="end" font-size="12" font-family="Georgia,'Times New Roman',serif">2</text><line x1="58" y1="98.47093497444361" x2="62" y2="98.47093497444361" stroke="black"/><text x="55" y="102.47093497444361" text-anchor="end" font-size="12" font-family="Georgia,'Times New Roman',serif">3</text><line x1="58" y1="46.62791329925814" x2="62" y2="46.62791329925814" stroke="black"/><text x="55" y="50.62791329925814" text-anchor="end" font-size="12" font-family="Georgia,'Times New Roman',serif">4</text><polyline fill="none" stroke="black" stroke-width="2" points="62.0,27.6 64.8,41.0 67.6,42.9 70.4,47.0 73.2,50.4 76.0,53.5 78.8,56.4 81.5,60.9 84.3,63.5 87.1,72.1 89.9,74.7 92.7,80.0 95.5,84.5 98.3,87.2 101.1,94.0 103.9,97.0 106.7,101.1 109.5,103.5 112.3,105.4 115.1,107.6 117.8,111.1 120.6,113.1 123.4,114.9 126.2,119.7 129.0,125.0 131.8,129.1 134.6,132.0 137.4,133.9 140.2,136.7 143.0,141.5 145.8,143.1 148.6,146.0 151.4,149.0 154.2,150.4 156.9,153.4 159.7,155.0 162.5,155.9 165.3,158.1 168.1,159.2 170.9,159.8 173.7,161.2 176.5,162.2 179.3,165.3 182.1,165.6 184.9,169.8 187.7,170.7 190.5,171.6 193.2,174.0 196.0,174.0 198.8,174.8 201.6,175.4 204.4,176.1 207.2,178.5 210.0,179.1 212.8,179.7 215.6,181.5 218.4,181.9 221.2,181.9 224.0,183.0 226.8,183.6 229.5,184.2 232.3,186.0 235.1,186.7 237.9,187.3 240.7,188.2 243.5,189.4 246.3,190.5 249.1,192.1 251.9,192.6 254.7,193.0 257.5,193.4 260.3,194.2 263.1,194.6 265.8,195.6 268.6,196.1 271.4,196.5 274.2,197.0 277.0,197.3 279.8,197.4 282.6,197.8 285.4,199.3 288.2,199.6 291.0,199.8 293.8,201.0 296.6,201.1 299.4,200.7 302.2,201.4 304.9,203.0 307.7,203.1 310.5,203.5 313.3,203.6 316.1,203.7 318.9,204.1 321.7,203.9 324.5,204.2 327.3,204.5 330.1,204.8 332.9,205.1 335.7,207.1 338.5,207.1 341.2,207.4 344.0,208.3 346.8,208.6 349.6,209.0 352.4,210.0 355.2,210.4 358.0,211.1 360.8,211.4 363.6,211.3 366.4,212.3 369.2,213.4 372.0,213.8 374.8,215.7 377.5,216.0 380.3,216.5 383.1,217.6 385.9,218.2 388.7,218.5 391.5,218.8 394.3,220.5 397.1,220.8 399.9,221.1 402.7,220.9 405.5,220.7 408.3,221.3 411.1,221.4 413.8,221.2 416.6,222.7 419.4,224.3 422.2,224.7 425.0,225.1 427.8,225.4 430.6,225.7 433.4,225.9 436.2,226.2 439.0,226.8 441.8,226.8 444.6,227.3 447.4,227.6 450.2,227.7 452.9,228.2 455.7,228.7 458.5,229.1 461.3,229.3 464.1,229.4 466.9,229.7 469.7,230.7 472.5,231.2 475.3,231.4 478.1,232.2 480.9,233.4 483.7,233.6 486.5,234.9 489.2,235.2 492.0,235.4 494.8,235.6 497.6,236.0 500.4,236.2 503.2,236.4 506.0,236.9"/><polyline fill="none" stroke="black" stroke-width="1.3" stroke-dasharray="7 4" points="62.0,253.6 64.8,253.1 67.6,252.9 70.4,252.4 73.2,252.2 76.0,252.0 78.8,251.9 81.5,252.0 84.3,249.5 87.1,247.5 89.9,245.7 92.7,245.9 95.5,245.0 98.3,245.2 101.1,243.4 103.9,243.6 106.7,243.9 109.5,244.1 112.3,244.0 115.1,244.2 117.8,243.4 120.6,243.5 123.4,242.9 126.2,243.0 129.0,243.2 131.8,242.6 134.6,242.5 137.4,242.7 140.2,243.3 143.0,242.7 145.8,243.0 148.6,242.0 151.4,240.8 154.2,241.0 156.9,241.1 159.7,240.8 162.5,241.1 165.3,240.6 168.1,240.3 170.9,240.2 173.7,240.1 176.5,240.3 179.3,240.5 182.1,240.5 184.9,241.0 187.7,240.8 190.5,240.7 193.2,240.5 196.0,240.2 198.8,240.5 201.6,240.8 204.4,240.6 207.2,240.4 210.0,240.5 212.8,240.7 215.6,240.8 218.4,240.7 221.2,240.9 224.0,241.5 226.8,241.6 229.5,241.8 232.3,242.3 235.1,241.8 237.9,242.0 240.7,242.6 243.5,242.8 246.3,243.1 249.1,243.2 251.9,243.0 254.7,243.1 257.5,243.4 260.3,244.0 263.1,244.4 265.8,244.7 268.6,244.9 271.4,245.1 274.2,245.1 277.0,245.0 279.8,245.2 282.6,245.3 285.4,245.3 288.2,245.1 291.0,245.1 293.8,245.6 296.6,245.9 299.4,245.9 302.2,245.8 304.9,246.1 307.7,246.0 310.5,246.2 313.3,246.2 316.1,246.3 318.9,246.4 321.7,246.0 324.5,246.1 327.3,246.3 330.1,246.7 332.9,246.8 335.7,247.1 338.5,247.1 341.2,247.2 344.0,247.4 346.8,247.5 349.6,247.6 352.4,247.7 355.2,247.8 358.0,247.9 360.8,248.0 363.6,248.0 366.4,248.3 369.2,248.1 372.0,248.1 374.8,248.3 377.5,248.5 380.3,248.3 383.1,248.5 385.9,248.8 388.7,248.9 391.5,249.0 394.3,249.1 397.1,249.2 399.9,249.3 402.7,249.2 405.5,249.4 408.3,249.7 411.1,249.7 413.8,249.9 416.6,250.0 419.4,250.1 422.2,250.2 425.0,250.3 427.8,250.4 430.6,250.6 433.4,250.7 436.2,250.6 439.0,250.8 441.8,250.9 444.6,251.0 447.4,251.2 450.2,251.1 452.9,251.2 455.7,251.2 458.5,251.3 461.3,251.3 464.1,251.3 466.9,251.3 469.7,251.4 472.5,251.4 475.3,251.5 478.1,251.5 480.9,251.6 483.7,251.6 486.5,251.7 489.2,251.7 492.0,251.8 494.8,251.8 497.6,251.8 500.4,251.8 503.2,251.8 506.0,251.9"/><line x1="356" y1="28" x2="382" y2="28" stroke="black" stroke-width="2"/><text x="388" y="32" font-size="12" font-family="Georgia,'Times New Roman',serif">right half (hot start)</text><line x1="356" y1="46" x2="382" y2="46" stroke="black" stroke-width="1.3" stroke-dasharray="7 4"/><text x="388" y="50" font-size="12" font-family="Georgia,'Times New Roman',serif">left half (cold start)</text><text x="284" y="290" text-anchor="middle" font-size="14" font-family="Georgia,'Times New Roman',serif">time t</text><text x="16" y="134" text-anchor="middle" font-size="14" font-family="Georgia,'Times New Roman',serif" transform="rotate(-90 16 134)">mean temperature T</text><text x="66" y="12" font-size="13" font-family="Georgia,'Times New Roman',serif">preset gas: left/right mean temperature</text></g><text x="6" y="16" font-size="14" font-weight="bold" font-family="Georgia,'Times New Roman',serif">(a)</text><g transform="translate(0,308)"><rect x="0" y="0" width="520" height="300" fill="white"/><line x1="62" y1="254" x2="506" y2="254" stroke="#ddd" stroke-width="0.6"/><line x1="62" y1="178.4073536526367" x2="506" y2="178.4073536526367" stroke="#ddd" stroke-width="0.6"/><line x1="62" y1="102.81470730527334" x2="506" y2="102.81470730527334" stroke="#ddd" stroke-width="0.6"/><line x1="62" y1="27.222060957909996" x2="506" y2="27.222060957909996" stroke="#ddd" stroke-width="0.6"/><rect x="62" y="14" width="444" height="240" fill="none" stroke="black" stroke-width="1"/><line x1="148.95579937304075" y1="254" x2="148.95579937304075" y2="258" stroke="black"/><text x="148.95579937304075" y="272" text-anchor="middle" font-size="12" font-family="Georgia,'Times New Roman',serif">50</text><line x1="235.94639498432605" y1="254" x2="235.94639498432605" y2="258" stroke="black"/><text x="235.94639498432605" y="272" text-anchor="middle" font-size="12" font-family="Georgia,'Times New Roman',serif">100</text><line x1="322.9369905956113" y1="254" x2="322.9369905956113" y2="258" stroke="black"/><text x="322.9369905956113" y="272" text-anchor="middle" font-size="12" font-family="Georgia,'Times New Roman',serif">150</text><line x1="409.92758620689654" y1="254" x2="409.92758620689654" y2="258" stroke="black"/><text x="409.92758620689654" y="272" text-anchor="middle" font-size="12" font-family="Georgia,'Times New Roman',serif">200</text><line x1="496.9181818181818" y1="254" x2="496.9181818181818" y2="258" stroke="black"/><text x="496.9181818181818" y="272" text-anchor="middle" font-size="12" font-family="Georgia,'Times New Roman',serif">250</text><line x1="58" y1="254" x2="62" y2="254" stroke="black"/><text x="55" y="258" text-anchor="end" font-size="12" font-family="Georgia,'Times New Roman',serif">0</text><line x1="58" y1="178.4073536526367" x2="62" y2="178.4073536526367" stroke="black"/><text x="55" y="182.4073536526367" text-anchor="end" font-size="12" font-family="Georgia,'Times New Roman',serif">50</text><line x1="58" y1="102.81470730527334" x2="62" y2="102.81470730527334" stroke="black"/><text x="55" y="106.81470730527334" text-anchor="end" font-size="12" font-family="Georgia,'Times New Roman',serif">100</text><line x1="58" y1="27.222060957909996" x2="62" y2="27.222060957909996" stroke="black"/><text x="55" y="31.222060957909996" text-anchor="end" font-size="12" font-family="Georgia,'Times New Roman',serif">150</text><polyline fill="none" stroke="black" stroke-width="2" points="62.0,201.9 63.4,201.8 64.8,201.5 66.2,201.0 67.6,200.3 69.0,199.4 70.4,198.3 71.7,197.0 73.1,195.6 74.5,193.9 75.9,192.0 77.3,190.0 78.7,187.9 80.1,185.6 81.5,183.3 82.9,180.8 84.3,178.3 85.7,175.7 87.1,173.0 88.4,170.3 89.8,167.6 91.2,164.8 92.6,161.9 94.0,159.1 95.4,156.1 96.8,153.2 98.2,150.2 99.6,147.3 101.0,144.3 102.4,141.3 103.8,138.3 105.1,135.3 106.5,132.3 107.9,129.3 109.3,126.4 110.7,123.5 112.1,120.6 113.5,117.8 114.9,115.1 116.3,112.4 117.7,109.7 119.1,107.1 120.5,104.4 121.8,101.8 123.2,99.2 124.6,96.8 126.0,94.3 127.4,91.8 128.8,89.4 130.2,87.0 131.6,84.6 133.0,82.3 134.4,80.0 135.8,77.6 137.2,75.3 138.6,73.1 139.9,70.9 141.3,68.7 142.7,66.7 144.1,64.6 145.5,62.6 146.9,60.6 148.3,58.9 149.7,57.1 151.1,55.5 152.5,53.8 153.9,52.3 155.3,50.8 156.6,49.3 158.0,47.8 159.4,46.3 160.8,44.8 162.2,43.3 163.6,41.9 165.0,40.6 166.4,39.4 167.8,38.2 169.2,37.2 170.6,36.2 172.0,35.3 173.3,34.6 174.7,33.9 176.1,33.3 177.5,32.6 178.9,32.1 180.3,31.6 181.7,31.1 183.1,30.6 184.5,30.2 185.9,29.8 187.3,29.6 188.7,29.3 190.1,29.0 191.4,28.7 192.8,28.5 194.2,28.2 195.6,28.0 197.0,27.8 198.4,27.7 199.8,27.7 201.2,27.6 202.6,27.6 204.0,27.6 205.4,27.6 206.8,27.6 208.1,27.6 209.5,27.7 210.9,27.9 212.3,28.1 213.7,28.2 215.1,28.4 216.5,28.6 217.9,28.8 219.3,29.1 220.7,29.3 222.1,29.5 223.5,29.8 224.8,30.1 226.2,30.4 227.6,30.7 229.0,31.0 230.4,31.3 231.8,31.7 233.2,32.0 234.6,32.4 236.0,32.8 237.4,33.2 238.8,33.7 240.2,34.1 241.5,34.7 242.9,35.2 244.3,35.7 245.7,36.2 247.1,36.7 248.5,37.2 249.9,37.7 251.3,38.2 252.7,38.7 254.1,39.2 255.5,39.6 256.9,40.1 258.3,40.5 259.6,41.0 261.0,41.4 262.4,41.8 263.8,42.2 265.2,42.7 266.6,43.1 268.0,43.5 269.4,44.0 270.8,44.4 272.2,44.8 273.6,45.2 275.0,45.6 276.3,45.9 277.7,46.3 279.1,46.7 280.5,47.0 281.9,47.4 283.3,47.7 284.7,48.0 286.1,48.4 287.5,48.7 288.9,49.0 290.3,49.4 291.7,49.7 293.0,50.0 294.4,50.4 295.8,50.7 297.2,51.0 298.6,51.3 300.0,51.5 301.4,51.8 302.8,52.0 304.2,52.3 305.6,52.5 307.0,52.7 308.4,52.9 309.7,53.2 311.1,53.4 312.5,53.6 313.9,53.8 315.3,53.9 316.7,54.1 318.1,54.2 319.5,54.3 320.9,54.5 322.3,54.7 323.7,54.8 325.1,55.0 326.5,55.2 327.8,55.3 329.2,55.5 330.6,55.6 332.0,55.7 333.4,55.8 334.8,55.9 336.2,56.0 337.6,56.1 339.0,56.2 340.4,56.2 341.8,56.3 343.2,56.4 344.5,56.5 345.9,56.6 347.3,56.6 348.7,56.7 350.1,56.7 351.5,56.8 352.9,56.8 354.3,56.9 355.7,56.9 357.1,56.9 358.5,56.9 359.9,56.9 361.2,56.9 362.6,56.9 364.0,56.9 365.4,57.0 366.8,57.0 368.2,57.0 369.6,57.0 371.0,57.0 372.4,57.0 373.8,57.0 375.2,56.9 376.6,56.9 377.9,56.9 379.3,56.8 380.7,56.8 382.1,56.7 383.5,56.7 384.9,56.6 386.3,56.6 387.7,56.5 389.1,56.4 390.5,56.3 391.9,56.3 393.3,56.2 394.7,56.1 396.0,56.0 397.4,55.9 398.8,55.8 400.2,55.7 401.6,55.6 403.0,55.5 404.4,55.4 405.8,55.3 407.2,55.2 408.6,55.0 410.0,54.9 411.4,54.7 412.7,54.6 414.1,54.4 415.5,54.2 416.9,54.1 418.3,53.9 419.7,53.8 421.1,53.6 422.5,53.5 423.9,53.3 425.3,53.1 426.7,52.9 428.1,52.8 429.4,52.6 430.8,52.3 432.2,52.1 433.6,51.9 435.0,51.6 436.4,51.4 437.8,51.1 439.2,50.9 440.6,50.6 442.0,50.3 443.4,50.0 444.8,49.7 446.2,49.4 447.5,49.2 448.9,48.9 450.3,48.7 451.7,48.5 453.1,48.3 454.5,48.1 455.9,47.9 457.3,47.7 458.7,47.5 460.1,47.3 461.5,47.1 462.9,46.9 464.2,46.7 465.6,46.5 467.0,46.3 468.4,46.2 469.8,46.0 471.2,45.8 472.6,45.7 474.0,45.5 475.4,45.3 476.8,45.1 478.2,44.9 479.6,44.7 480.9,44.5 482.3,44.3 483.7,44.1 485.1,43.9 486.5,43.7 487.9,43.5 489.3,43.3 490.7,43.1 492.1,42.9 493.5,42.7 494.9,42.5 496.3,42.3 497.6,42.1 499.0,41.9 500.4,41.8 501.8,41.6 503.2,41.4 504.6,41.2 506.0,40.9"/><line x1="74" y1="28" x2="100" y2="28" stroke="black" stroke-width="2"/><text x="106" y="32" font-size="12" font-family="Georgia,'Times New Roman',serif">hot core (90 particles)</text><text x="284" y="290" text-anchor="middle" font-size="14" font-family="Georgia,'Times New Roman',serif">time t</text><text x="16" y="134" text-anchor="middle" font-size="14" font-family="Georgia,'Times New Roman',serif" transform="rotate(-90 16 134)">mean core radius</text><text x="66" y="12" font-size="13" font-family="Georgia,'Times New Roman',serif">preset pressure: hot-core expansion</text></g><text x="6" y="324" font-size="14" font-weight="bold" font-family="Georgia,'Times New Roman',serif">(b)</text></svg>