<svg xmlns="http://www.w3.org/2000/svg" width="560" height="608" viewBox="0 0 560 608"><rect width="560" height="608" fill="white"/><g transform="translate(0,0)"><rect x="0" y="0" width="560" height="300" fill="white"/><line x1="62" y1="222.127244018452" x2="546" y2="222.127244018452" stroke="#ddd" stroke-width="0.6"/><line x1="62" y1="158.38173205535594" x2="546" y2="158.38173205535594" stroke="#ddd" stroke-width="0.6"/><line x1="62" y1="94.63622009225993" x2="546" y2="94.63622009225993" stroke="#ddd" stroke-width="0.6"/><line x1="62" y1="30.89070812916391" x2="546" y2="30.89070812916391" stroke="#ddd" stroke-width="0.6"/><rect x="62" y="20" width="484" height="234" fill="none" stroke="black" stroke-width="1"/><line x1="80.61538461538461" y1="254" x2="80.61538461538461" y2="258" stroke="black"/><text x="80.61538461538461" y="272" text-anchor="middle" font-size="12" font-family="Georgia,'Times New Roman',serif">50</text><line x1="173.69230769230768" y1="254" x2="173.69230769230768" y2="258" stroke="black"/><text x="173.69230769230768" y="272" text-anchor="middle" font-size="12" font-family="Georgia,'Times New Roman',serif">100</text><line x1="266.7692307692308" y1="254" x2="266.7692307692308" y2="258" stroke="black"/><text x="266.7692307692308" y="272" text-anchor="middle" font-size="12" font-family="Georgia,'Times New Roman',serif">150</text><line x1="359.84615384615387" y1="254" x2="359.84615384615387" y2="258" stroke="black"/><text x="359.84615384615387" y="272" text-anchor="middle" font-size="12" font-family="Georgia,'Times New Roman',serif">200</text><line x1="452.9230769230769" y1="254" x2="452.9230769230769" y2="258" stroke="black"/><text x="452.9230769230769" y="272" text-anchor="middle" font-size="12" font-family="Georgia,'Times New Roman',serif">250</text><line x1="546" y1="254" x2="546" y2="258" stroke="black"/><text x="546" y="272" text-anchor="middle" font-size="12" font-family="Georgia,'Times New Roman',serif">300</text><line x1="58" y1="222.127244018452" x2="62" y2="222.127244018452" stroke="black"/><text x="55" y="226.127244018452" text-anchor="end" font-size="12" font-family="Georgia,'Times New Roman',serif">0.6</text><line x1="58" y1="158.38173205535594" x2="62" y2="158.38173205535594" stroke="black"/><text x="55" y="162.38173205535594" text-anchor="end" font-size="12" font-family="Georgia,'Times New Roman',serif">0.8</text><line x1="58" y1="94.63622009225993" x2="62" y2="94.63622009225993" stroke="black"/><text x="55" y="98.63622009225993" text-anchor="end" font-size="12" font-family="Georgia,'Times New Roman',serif">1</text><line x1="58" y1="30.89070812916391" x2="62" y2="30.89070812916391" stroke="black"/><text x="55" y="34.89070812916391" text-anchor="end" font-size="12" font-family="Georgia,'Times New Roman',serif">1.2</text><polyline fill="none" stroke="black" stroke-width="2" points="92.3,56.9 152.8,71.3 213.3,38.3 273.8,33.2 334.3,44.3 394.8,63.2 455.3,54.3"/><line x1="92.3" y1="63.1" x2="92.3" y2="50.7" stroke="black" stroke-width="1"/><line x1="89.3" y1="50.7" x2="95.3" y2="50.7" stroke="black" stroke-width="1"/><line x1="89.3" y1="63.1" x2="95.3" y2="63.1" stroke="black" stroke-width="1"/><line x1="152.8" y1="77.0" x2="152.8" y2="65.7" stroke="black" stroke-width="1"/><line x1="149.8" y1="65.7" x2="155.8" y2="65.7" stroke="black" stroke-width="1"/><line x1="149.8" y1="77.0" x2="155.8" y2="77.0" stroke="black" stroke-width="1"/><line x1="213.3" y1="41.2" x2="213.3" y2="35.3" stroke="black" stroke-width="1"/><line x1="210.3" y1="35.3" x2="216.3" y2="35.3" stroke="black" stroke-width="1"/><line x1="210.3" y1="41.2" x2="216.3" y2="41.2" stroke="black" stroke-width="1"/><line x1="273.8" y1="34.5" x2="273.8" y2="32.0" stroke="black" stroke-width="1"/><line x1="270.8" y1="32.0" x2="276.8" y2="32.0" stroke="black" stroke-width="1"/><line x1="270.8" y1="34.5" x2="276.8" y2="34.5" stroke="black" stroke-width="1"/><line x1="334.3" y1="48.5" x2="334.3" y2="40.1" stroke="black" stroke-width="1"/><line x1="331.3" y1="40.1" x2="337.3" y2="40.1" stroke="black" stroke-width="1"/><line x1="331.3" y1="48.5" x2="337.3" y2="48.5" stroke="black" stroke-width="1"/><line x1="394.8" y1="70.2" x2="394.8" y2="56.2" stroke="black" stroke-width="1"/><line x1="391.8" y1="56.2" x2="397.8" y2="56.2" stroke="black" stroke-width="1"/><line x1="391.8" y1="70.2" x2="397.8" y2="70.2" stroke="black" stroke-width="1"/><line x1="455.3" y1="59.7" x2="455.3" y2="49.0" stroke="black" stroke-width="1"/><line x1="452.3" y1="49.0" x2="458.3" y2="49.0" stroke="black" stroke-width="1"/><line x1="452.3" y1="59.7" x2="458.3" y2="59.7" stroke="black" stroke-width="1"/><circle cx="92.3" cy="56.9" r="3" fill="black"/><circle cx="152.8" cy="71.3" r="3" fill="black"/><circle cx="213.3" cy="38.3" r="3" fill="black"/><circle cx="273.8" cy="33.2" r="3" fill="black"/><circle cx="334.3" cy="44.3" r="3" fill="black"/><circle cx="394.8" cy="63.2" r="3" fill="black"/><circle cx="455.3" cy="54.3" r="3" fill="black"/><polyline fill="none" stroke="black" stroke-width="1.3" stroke-dasharray="7 4" points="213.3,176.2 273.8,174.0 334.3,146.3 394.8,120.6 455.3,102.9 515.8,91.7"/><line x1="213.3" y1="184.7" x2="213.3" y2="167.6" stroke="black" stroke-width="1"/><line x1="210.3" y1="167.6" x2="216.3" y2="167.6" stroke="black" stroke-width="1"/><line x1="210.3" y1="184.7" x2="216.3" y2="184.7" stroke="black" stroke-width="1"/><line x1="273.8" y1="176.3" x2="273.8" y2="171.8" stroke="black" stroke-width="1"/><line x1="270.8" y1="171.8" x2="276.8" y2="171.8" stroke="black" stroke-width="1"/><line x1="270.8" y1="176.3" x2="276.8" y2="176.3" stroke="black" stroke-width="1"/><line x1="334.3" y1="149.5" x2="334.3" y2="143.2" stroke="black" stroke-width="1"/><line x1="331.3" y1="143.2" x2="337.3" y2="143.2" stroke="black" stroke-width="1"/><line x1="331.3" y1="149.5" x2="337.3" y2="149.5" stroke="black" stroke-width="1"/><line x1="394.8" y1="135.8" x2="394.8" y2="105.3" stroke="black" stroke-width="1"/><line x1="391.8" y1="105.3" x2="397.8" y2="105.3" stroke="black" stroke-width="1"/><line x1="391.8" y1="135.8" x2="397.8" y2="135.8" stroke="black" stroke-width="1"/><line x1="455.3" y1="110.7" x2="455.3" y2="95.2" stroke="black" stroke-width="1"/><line x1="452.3" y1="95.2" x2="458.3" y2="95.2" stroke="black" stroke-width="1"/><line x1="452.3" y1="110.7" x2="458.3" y2="110.7" stroke="black" stroke-width="1"/><line x1="515.8" y1="94.5" x2="515.8" y2="88.9" stroke="black" stroke-width="1"/><line x1="512.8" y1="88.9" x2="518.8" y2="88.9" stroke="black" stroke-width="1"/><line x1="512.8" y1="94.5" x2="518.8" y2="94.5" stroke="black" stroke-width="1"/><circle cx="213.3" cy="176.2" r="3" fill="black"/><circle cx="273.8" cy="174.0" r="3" fill="black"/><circle cx="334.3" cy="146.3" r="3" fill="black"/><circle cx="394.8" cy="120.6" r="3" fill="black"/><circle cx="455.3" cy="102.9" r="3" fill="black"/><circle cx="515.8" cy="91.7" r="3" fill="black"/><polyline fill="none" stroke="#888" stroke-width="1.3" stroke-dasharray="2 3" points="62.0,94.6 546.0,94.6"/><line x1="311" y1="198" x2="337" y2="198" stroke="black" stroke-width="2"/><text x="343" y="202" font-size="12" font-family="Georgia,'Times New Roman',serif">kF = 1 (frame dragging on)</text><line x1="311" y1="216" x2="337" y2="216" stroke="black" stroke-width="1.3" stroke-dasharray="7 4"/><text x="343" y="220" font-size="12" font-family="Georgia,'Times New Roman',serif">kF = 0 (Newtonian control)</text><line x1="311" y1="234" x2="337" y2="234" stroke="#888" stroke-width="1.3" stroke-dasharray="2 3"/><text x="343" y="238" font-size="12" font-family="Georgia,'Times New Roman',serif">v = v_bar (baryonic baseline)</text><text x="304" y="290" text-anchor="middle" font-size="14" font-family="Georgia,'Times New Roman',serif">radius r</text><text x="16" y="137" text-anchor="middle" font-size="14" font-family="Georgia,'Times New Roman',serif" transform="rotate(-90 16 137)">v(r) / v_bar(r)</text></g><text x="6" y="16" font-size="14" font-weight="bold" font-family="Georgia,'Times New Roman',serif">(a)</text><g transform="translate(0,308)"><rect x="0" y="0" width="560" height="300" fill="white"/><line x1="62" y1="236.71204907866857" x2="546" y2="236.71204907866857" stroke="#ddd" stroke-width="0.6"/><line x1="62" y1="167.56024539334297" x2="546" y2="167.56024539334297" stroke="#ddd" stroke-width="0.6"/><line x1="62" y1="98.40844170801734" x2="546" y2="98.40844170801734" stroke="#ddd" stroke-width="0.6"/><line x1="62" y1="29.256638022691636" x2="546" y2="29.256638022691636" stroke="#ddd" stroke-width="0.6"/><rect x="62" y="20" width="484" height="234" fill="none" stroke="black" stroke-width="1"/><line x1="80.61538461538461" y1="254" x2="80.61538461538461" y2="258" stroke="black"/><text x="80.61538461538461" y="272" text-anchor="middle" font-size="12" font-family="Georgia,'Times New Roman',serif">50</text><line x1="173.69230769230768" y1="254" x2="173.69230769230768" y2="258" stroke="black"/><text x="173.69230769230768" y="272" text-anchor="middle" font-size="12" font-family="Georgia,'Times New Roman',serif">100</text><line x1="266.7692307692308" y1="254" x2="266.7692307692308" y2="258" stroke="black"/><text x="266.7692307692308" y="272" text-anchor="middle" font-size="12" font-family="Georgia,'Times New Roman',serif">150</text><line x1="359.84615384615387" y1="254" x2="359.84615384615387" y2="258" stroke="black"/><text x="359.84615384615387" y="272" text-anchor="middle" font-size="12" font-family="Georgia,'Times New Roman',serif">200</text><line x1="452.9230769230769" y1="254" x2="452.9230769230769" y2="258" stroke="black"/><text x="452.9230769230769" y="272" text-anchor="middle" font-size="12" font-family="Georgia,'Times New Roman',serif">250</text><line x1="546" y1="254" x2="546" y2="258" stroke="black"/><text x="546" y="272" text-anchor="middle" font-size="12" font-family="Georgia,'Times New Roman',serif">300</text><line x1="58" y1="236.71204907866857" x2="62" y2="236.71204907866857" stroke="black"/><text x="55" y="240.71204907866857" text-anchor="end" font-size="12" font-family="Georgia,'Times New Roman',serif">1</text><line x1="58" y1="167.56024539334297" x2="62" y2="167.56024539334297" stroke="black"/><text x="55" y="171.56024539334297" text-anchor="end" font-size="12" font-family="Georgia,'Times New Roman',serif">1.2</text><line x1="58" y1="98.40844170801734" x2="62" y2="98.40844170801734" stroke="black"/><text x="55" y="102.40844170801734" text-anchor="end" font-size="12" font-family="Georgia,'Times New Roman',serif">1.4</text><line x1="58" y1="29.256638022691636" x2="62" y2="29.256638022691636" stroke="black"/><text x="55" y="33.25663802269163" text-anchor="end" font-size="12" font-family="Georgia,'Times New Roman',serif">1.6</text><polyline fill="none" stroke="black" stroke-width="2" points="213.3,35.1 273.8,33.2 334.3,104.5 394.8,167.8 455.3,180.0"/><line x1="213.3" y1="53.3" x2="213.3" y2="20.0" stroke="black" stroke-width="1"/><line x1="210.3" y1="20.0" x2="216.3" y2="20.0" stroke="black" stroke-width="1"/><line x1="210.3" y1="53.3" x2="216.3" y2="53.3" stroke="black" stroke-width="1"/><line x1="273.8" y1="39.0" x2="273.8" y2="27.5" stroke="black" stroke-width="1"/><line x1="270.8" y1="27.5" x2="276.8" y2="27.5" stroke="black" stroke-width="1"/><line x1="270.8" y1="39.0" x2="276.8" y2="39.0" stroke="black" stroke-width="1"/><line x1="334.3" y1="112.9" x2="334.3" y2="96.2" stroke="black" stroke-width="1"/><line x1="331.3" y1="96.2" x2="337.3" y2="96.2" stroke="black" stroke-width="1"/><line x1="331.3" y1="112.9" x2="337.3" y2="112.9" stroke="black" stroke-width="1"/><line x1="394.8" y1="195.5" x2="394.8" y2="140.0" stroke="black" stroke-width="1"/><line x1="391.8" y1="140.0" x2="397.8" y2="140.0" stroke="black" stroke-width="1"/><line x1="391.8" y1="195.5" x2="397.8" y2="195.5" stroke="black" stroke-width="1"/><line x1="455.3" y1="189.8" x2="455.3" y2="170.2" stroke="black" stroke-width="1"/><line x1="452.3" y1="170.2" x2="458.3" y2="170.2" stroke="black" stroke-width="1"/><line x1="452.3" y1="189.8" x2="458.3" y2="189.8" stroke="black" stroke-width="1"/><circle cx="213.3" cy="35.1" r="3" fill="black"/><circle cx="273.8" cy="33.2" r="3" fill="black"/><circle cx="334.3" cy="104.5" r="3" fill="black"/><circle cx="394.8" cy="167.8" r="3" fill="black"/><circle cx="455.3" cy="180.0" r="3" fill="black"/><polyline fill="none" stroke="#888" stroke-width="1.3" stroke-dasharray="2 3" points="62.0,236.7 546.0,236.7"/><circle cx="213.3" cy="35.1" r="6" fill="none" stroke="black" stroke-width="1.6"/><circle cx="213.3" cy="35.1" r="2.2" fill="black"/><text x="175.3" y="23.1" font-size="12" font-family="Georgia,'Times New Roman',serif">1.58</text><circle cx="455.3" cy="180.0" r="6" fill="none" stroke="black" stroke-width="1.6"/><circle cx="455.3" cy="180.0" r="2.2" fill="black"/><text x="466.3" y="184.0" font-size="12" font-family="Georgia,'Times New Roman',serif">1.16</text><line x1="74" y1="216" x2="100" y2="216" stroke="black" stroke-width="2"/><text x="106" y="220" font-size="12" font-family="Georgia,'Times New Roman',serif">radius-resolved enhancement (8 seeds, +/- 1 s.d.)</text><line x1="74" y1="234" x2="100" y2="234" stroke="#888" stroke-width="1.3" stroke-dasharray="2 3"/><text x="106" y="238" font-size="12" font-family="Georgia,'Times New Roman',serif">no enhancement</text><text x="304" y="290" text-anchor="middle" font-size="14" font-family="Georgia,'Times New Roman',serif">radius r</text><text x="16" y="137" text-anchor="middle" font-size="14" font-family="Georgia,'Times New Roman',serif" transform="rotate(-90 16 137)">enhancement  kF=1 / kF=0</text></g><text x="6" y="324" font-size="14" font-weight="bold" font-family="Georgia,'Times New Roman',serif">(b)</text></svg>