<svg xmlns="http://www.w3.org/2000/svg" width="540" height="608" viewBox="0 0 540 608"><rect width="540" height="608" fill="white"/><g transform="translate(0,0)"><rect x="0" y="0" width="540" height="300" fill="white"/><line x1="62" y1="237.86206896551727" x2="526" y2="237.86206896551727" stroke="#ddd" stroke-width="0.6"/><line x1="62" y1="197.51724137931035" x2="526" y2="197.51724137931035" stroke="#ddd" stroke-width="0.6"/><line x1="62" y1="157.17241379310346" x2="526" y2="157.17241379310346" stroke="#ddd" stroke-width="0.6"/><line x1="62" y1="116.82758620689657" x2="526" y2="116.82758620689657" stroke="#ddd" stroke-width="0.6"/><line x1="62" y1="76.48275862068967" x2="526" y2="76.48275862068967" stroke="#ddd" stroke-width="0.6"/><line x1="62" y1="36.13793103448276" x2="526" y2="36.13793103448276" stroke="#ddd" stroke-width="0.6"/><rect x="62" y="20" width="464" height="234" fill="none" stroke="black" stroke-width="1"/><line x1="62" y1="254" x2="62" y2="258" stroke="black"/><text x="62" y="272" text-anchor="middle" font-size="12" font-family="Georgia,'Times New Roman',serif">0</text><line x1="182.83333333333334" y1="254" x2="182.83333333333334" y2="258" stroke="black"/><text x="182.83333333333334" y="272" text-anchor="middle" font-size="12" font-family="Georgia,'Times New Roman',serif">5</text><line x1="303.6666666666667" y1="254" x2="303.6666666666667" y2="258" stroke="black"/><text x="303.6666666666667" y="272" text-anchor="middle" font-size="12" font-family="Georgia,'Times New Roman',serif">10</text><line x1="424.5" y1="254" x2="424.5" y2="258" stroke="black"/><text x="424.5" y="272" text-anchor="middle" font-size="12" font-family="Georgia,'Times New Roman',serif">15</text><line x1="58" y1="237.86206896551727" x2="62" y2="237.86206896551727" stroke="black"/><text x="55" y="241.86206896551727" text-anchor="end" font-size="12" font-family="Georgia,'Times New Roman',serif">1</text><line x1="58" y1="197.51724137931035" x2="62" y2="197.51724137931035" stroke="black"/><text x="55" y="201.51724137931035" text-anchor="end" font-size="12" font-family="Georgia,'Times New Roman',serif">1.25</text><line x1="58" y1="157.17241379310346" x2="62" y2="157.17241379310346" stroke="black"/><text x="55" y="161.17241379310346" text-anchor="end" font-size="12" font-family="Georgia,'Times New Roman',serif">1.5</text><line x1="58" y1="116.82758620689657" x2="62" y2="116.82758620689657" stroke="black"/><text x="55" y="120.82758620689657" text-anchor="end" font-size="12" font-family="Georgia,'Times New Roman',serif">1.75</text><line x1="58" y1="76.48275862068967" x2="62" y2="76.48275862068967" stroke="black"/><text x="55" y="80.48275862068967" text-anchor="end" font-size="12" font-family="Georgia,'Times New Roman',serif">2</text><line x1="58" y1="36.13793103448276" x2="62" y2="36.13793103448276" stroke="black"/><text x="55" y="40.13793103448276" text-anchor="end" font-size="12" font-family="Georgia,'Times New Roman',serif">2.25</text><polyline fill="none" stroke="black" stroke-width="2" points="71.7,237.7 81.3,237.3 91.0,236.8 100.7,236.1 110.3,235.2 120.0,234.1 129.7,232.8 139.3,231.3 149.0,229.6 158.7,227.8 168.3,225.8 178.0,223.6 187.7,221.2 197.3,218.7 207.0,216.0 216.7,213.1 226.3,210.1 236.0,206.8 245.7,203.5 255.3,200.0 265.0,196.3 274.7,192.4 284.3,188.4 294.0,184.3 303.7,180.0 313.3,175.6 323.0,171.1 332.7,166.4 342.3,161.5 352.0,156.6 361.7,151.5 371.3,146.3 381.0,140.9 390.7,135.5 400.3,129.9 410.0,124.2 419.7,118.4 429.3,112.5 439.0,106.4 448.7,100.3 458.3,94.0 468.0,87.7 477.7,81.2 487.3,74.7 497.0,68.0 506.7,61.3 516.3,54.4 526.0,47.5"/><polyline fill="none" stroke="black" stroke-width="1.3" stroke-dasharray="7 4" points="71.7,237.8 81.3,237.7 91.0,237.7 100.7,237.6 110.3,237.6 120.0,237.5 129.7,237.5 139.3,237.4 149.0,237.4 158.7,237.4 168.3,237.3 178.0,237.3 187.7,237.3 197.3,237.2 207.0,237.2 216.7,237.2 226.3,237.2 236.0,237.1 245.7,237.1 255.3,237.1 265.0,237.1 274.7,237.1 284.3,237.1 294.0,237.1 303.7,237.1 313.3,237.1 323.0,237.1 332.7,237.1 342.3,237.2 352.0,237.2 361.7,237.2 371.3,237.2 381.0,237.2 390.7,237.3 400.3,237.3 410.0,237.3 419.7,237.4 429.3,237.4 439.0,237.4 448.7,237.5 458.3,237.5 468.0,237.6 477.7,237.6 487.3,237.7 497.0,237.7 506.7,237.8 516.3,237.8 526.0,237.9"/><polyline fill="none" stroke="#888" stroke-width="1.3" stroke-dasharray="2 3" points="62.0,237.9 526.0,237.9"/><circle cx="526.0" cy="47.5" r="6" fill="none" stroke="black" stroke-width="1.6"/><circle cx="526.0" cy="47.5" r="2.2" fill="black"/><text x="326.0" y="73.5" font-size="12" font-family="Georgia,'Times New Roman',serif">a_eff = 2.1795 at t = 19.2</text><line x1="74" y1="34" x2="100" y2="34" stroke="black" stroke-width="2"/><text x="106" y="38" font-size="12" font-family="Georgia,'Times New Roman',serif">with spin pressure (kRep = 0.5)</text><line x1="74" y1="52" x2="100" y2="52" stroke="black" stroke-width="1.3" stroke-dasharray="7 4"/><text x="106" y="56" font-size="12" font-family="Georgia,'Times New Roman',serif">pressure removed (kRep = 0) — gravity only</text><line x1="74" y1="70" x2="100" y2="70" stroke="#888" stroke-width="1.3" stroke-dasharray="2 3"/><text x="106" y="74" font-size="12" font-family="Georgia,'Times New Roman',serif">a = 1 (no expansion)</text><text x="294" y="290" text-anchor="middle" font-size="14" font-family="Georgia,'Times New Roman',serif">time t</text><text x="16" y="137" text-anchor="middle" font-size="14" font-family="Georgia,'Times New Roman',serif" transform="rotate(-90 16 137)">measured scale factor  a_eff</text></g><text x="6" y="16" font-size="14" font-weight="bold" font-family="Georgia,'Times New Roman',serif">(a)</text><g transform="translate(0,308)"><rect x="0" y="0" width="540" height="300" fill="white"/><line x1="62" y1="232.0569411145545" x2="526" y2="232.0569411145545" stroke="#ddd" stroke-width="0.6"/><line x1="62" y1="189.29628384305528" x2="526" y2="189.29628384305528" stroke="#ddd" stroke-width="0.6"/><line x1="62" y1="146.5356265715466" x2="526" y2="146.5356265715466" stroke="#ddd" stroke-width="0.6"/><line x1="62" y1="103.77496930004739" x2="526" y2="103.77496930004739" stroke="#ddd" stroke-width="0.6"/><line x1="62" y1="61.01431202853869" x2="526" y2="61.01431202853869" stroke="#ddd" stroke-width="0.6"/><rect x="62" y="20" width="464" height="234" fill="none" stroke="black" stroke-width="1"/><line x1="62" y1="254" x2="62" y2="258" stroke="black"/><text x="62" y="272" text-anchor="middle" font-size="12" font-family="Georgia,'Times New Roman',serif">0</text><line x1="182.83333333333334" y1="254" x2="182.83333333333334" y2="258" stroke="black"/><text x="182.83333333333334" y="272" text-anchor="middle" font-size="12" font-family="Georgia,'Times New Roman',serif">5</text><line x1="303.6666666666667" y1="254" x2="303.6666666666667" y2="258" stroke="black"/><text x="303.6666666666667" y="272" text-anchor="middle" font-size="12" font-family="Georgia,'Times New Roman',serif">10</text><line x1="424.5" y1="254" x2="424.5" y2="258" stroke="black"/><text x="424.5" y="272" text-anchor="middle" font-size="12" font-family="Georgia,'Times New Roman',serif">15</text><line x1="58" y1="232.0569411145545" x2="62" y2="232.0569411145545" stroke="black"/><text x="55" y="236.0569411145545" text-anchor="end" font-size="12" font-family="Georgia,'Times New Roman',serif">1.00000</text><line x1="58" y1="189.29628384305528" x2="62" y2="189.29628384305528" stroke="black"/><text x="55" y="193.29628384305528" text-anchor="end" font-size="12" font-family="Georgia,'Times New Roman',serif">1.00100</text><line x1="58" y1="146.5356265715466" x2="62" y2="146.5356265715466" stroke="black"/><text x="55" y="150.5356265715466" text-anchor="end" font-size="12" font-family="Georgia,'Times New Roman',serif">1.00200</text><line x1="58" y1="103.77496930004739" x2="62" y2="103.77496930004739" stroke="black"/><text x="55" y="107.77496930004739" text-anchor="end" font-size="12" font-family="Georgia,'Times New Roman',serif">1.00300</text><line x1="58" y1="61.01431202853869" x2="62" y2="61.01431202853869" stroke="black"/><text x="55" y="65.01431202853868" text-anchor="end" font-size="12" font-family="Georgia,'Times New Roman',serif">1.00400</text><polyline fill="none" stroke="black" stroke-width="2" stroke-dasharray="7 4" points="71.7,215.3 81.3,199.3 91.0,184.1 100.7,169.6 110.3,155.8 120.0,142.7 129.7,130.4 139.3,118.8 149.0,108.0 158.7,97.8 168.3,88.5 178.0,79.8 187.7,71.8 197.3,64.6 207.0,58.1 216.7,52.4 226.3,47.4 236.0,43.1 245.7,39.5 255.3,36.7 265.0,34.6 274.7,33.2 284.3,32.5 294.0,32.6 303.7,33.3 313.3,34.9 323.0,37.1 332.7,40.1 342.3,43.7 352.0,48.1 361.7,53.3 371.3,59.1 381.0,65.7 390.7,72.9 400.3,80.9 410.0,89.5 419.7,98.6 429.3,108.4 439.0,118.8 448.7,129.9 458.3,141.5 468.0,153.8 477.7,166.7 487.3,180.4 497.0,194.8 506.7,209.7 516.3,225.3 526.0,241.5"/><polyline fill="none" stroke="#888" stroke-width="1.3" stroke-dasharray="2 3" points="62.0,232.1 526.0,232.1"/><circle cx="284.3" cy="32.5" r="6" fill="none" stroke="black" stroke-width="1.6"/><circle cx="284.3" cy="32.5" r="2.2" fill="black"/><text x="172.3" y="110.5" font-size="12" font-family="Georgia,'Times New Roman',serif">peak 1.0047 at t = 9.2, then recollapse</text><line x1="74" y1="34" x2="100" y2="34" stroke="black" stroke-width="2" stroke-dasharray="7 4"/><text x="106" y="38" font-size="12" font-family="Georgia,'Times New Roman',serif">pressure removed (kRep = 0)</text><line x1="74" y1="52" x2="100" y2="52" stroke="#888" stroke-width="1.3" stroke-dasharray="2 3"/><text x="106" y="56" font-size="12" font-family="Georgia,'Times New Roman',serif">a = 1 (no expansion)</text><text x="294" y="290" text-anchor="middle" font-size="14" font-family="Georgia,'Times New Roman',serif">time t</text><text x="16" y="137" text-anchor="middle" font-size="14" font-family="Georgia,'Times New Roman',serif" transform="rotate(-90 16 137)">a_eff  (gravity-only control, magnified)</text></g><text x="6" y="324" font-size="14" font-weight="bold" font-family="Georgia,'Times New Roman',serif">(b)</text></svg>