<svg xmlns="http://www.w3.org/2000/svg" width="520" height="360" viewBox="0 0 520 360"><rect x="0" y="0" width="520" height="360" fill="white"/><line x1="62" y1="298.3665714568081" x2="506" y2="298.3665714568081" stroke="#ddd" stroke-width="0.6"/><line x1="62" y1="238.61095883404246" x2="506" y2="238.61095883404246" stroke="#ddd" stroke-width="0.6"/><line x1="62" y1="178.85534621127684" x2="506" y2="178.85534621127684" stroke="#ddd" stroke-width="0.6"/><line x1="62" y1="119.09973358851151" x2="506" y2="119.09973358851151" stroke="#ddd" stroke-width="0.6"/><line x1="62" y1="59.34412096574585" x2="506" y2="59.34412096574585" stroke="#ddd" stroke-width="0.6"/><rect x="62" y="14" width="444" height="300" fill="none" stroke="black" stroke-width="1"/><line x1="122.54545454545453" y1="314" x2="122.54545454545453" y2="318" stroke="black"/><text x="122.54545454545453" y="332" text-anchor="middle" font-size="12" font-family="Georgia,'Times New Roman',serif">50</text><line x1="223.45454545454547" y1="314" x2="223.45454545454547" y2="318" stroke="black"/><text x="223.45454545454547" y="332" text-anchor="middle" font-size="12" font-family="Georgia,'Times New Roman',serif">100</text><line x1="324.3636363636364" y1="314" x2="324.3636363636364" y2="318" stroke="black"/><text x="324.3636363636364" y="332" text-anchor="middle" font-size="12" font-family="Georgia,'Times New Roman',serif">150</text><line x1="425.2727272727273" y1="314" x2="425.2727272727273" y2="318" stroke="black"/><text x="425.2727272727273" y="332" text-anchor="middle" font-size="12" font-family="Georgia,'Times New Roman',serif">200</text><line x1="58" y1="298.3665714568081" x2="62" y2="298.3665714568081" stroke="black"/><text x="55" y="302.3665714568081" text-anchor="end" font-size="12" font-family="Georgia,'Times New Roman',serif">0.5</text><line x1="58" y1="238.61095883404246" x2="62" y2="238.61095883404246" stroke="black"/><text x="55" y="242.61095883404246" text-anchor="end" font-size="12" font-family="Georgia,'Times New Roman',serif">0.525</text><line x1="58" y1="178.85534621127684" x2="62" y2="178.85534621127684" stroke="black"/><text x="55" y="182.85534621127684" text-anchor="end" font-size="12" font-family="Georgia,'Times New Roman',serif">0.55</text><line x1="58" y1="119.09973358851151" x2="62" y2="119.09973358851151" stroke="black"/><text x="55" y="123.09973358851151" text-anchor="end" font-size="12" font-family="Georgia,'Times New Roman',serif">0.575</text><line x1="58" y1="59.34412096574585" x2="62" y2="59.34412096574585" stroke="black"/><text x="55" y="63.34412096574585" text-anchor="end" font-size="12" font-family="Georgia,'Times New Roman',serif">0.6</text><polyline fill="none" stroke="black" stroke-width="2" points="62.0,297.9 82.2,296.8 102.4,295.2 142.7,290.6 183.1,284.0 223.5,275.1 263.8,263.3 304.2,248.2 344.5,228.6 384.9,202.9 425.3,167.8 465.6,116.6 506.0,30.1"/><circle cx="62.0" cy="297.9" r="3" fill="black"/><circle cx="82.2" cy="296.8" r="3" fill="black"/><circle cx="102.4" cy="295.2" r="3" fill="black"/><circle cx="142.7" cy="290.6" r="3" fill="black"/><circle cx="183.1" cy="284.0" r="3" fill="black"/><circle cx="223.5" cy="275.1" r="3" fill="black"/><circle cx="263.8" cy="263.3" r="3" fill="black"/><circle cx="304.2" cy="248.2" r="3" fill="black"/><circle cx="344.5" cy="228.6" r="3" fill="black"/><circle cx="384.9" cy="202.9" r="3" fill="black"/><circle cx="425.3" cy="167.8" r="3" fill="black"/><circle cx="465.6" cy="116.6" r="3" fill="black"/><circle cx="506.0" cy="30.1" r="3" fill="black"/><polyline fill="none" stroke="black" stroke-width="1.3" stroke-dasharray="7 4" points="62.0,297.9 82.2,296.8 102.4,295.2 142.7,290.6 183.1,284.0 223.5,275.1 263.8,263.4 304.2,248.2 344.5,228.7 384.9,203.0 425.3,167.9 465.6,116.7 506.0,30.3"/><circle cx="62.0" cy="297.9" r="3" fill="black"/><circle cx="82.2" cy="296.8" r="3" fill="black"/><circle cx="102.4" cy="295.2" r="3" fill="black"/><circle cx="142.7" cy="290.6" r="3" fill="black"/><circle cx="183.1" cy="284.0" r="3" fill="black"/><circle cx="223.5" cy="275.1" r="3" fill="black"/><circle cx="263.8" cy="263.4" r="3" fill="black"/><circle cx="304.2" cy="248.2" r="3" fill="black"/><circle cx="344.5" cy="228.7" r="3" fill="black"/><circle cx="384.9" cy="203.0" r="3" fill="black"/><circle cx="425.3" cy="167.9" r="3" fill="black"/><circle cx="465.6" cy="116.7" r="3" fill="black"/><circle cx="506.0" cy="30.3" r="3" fill="black"/><polyline fill="none" stroke="#888" stroke-width="1.3" stroke-dasharray="2 3" points="62.0,297.8 82.2,296.7 102.4,295.1 142.7,290.5 183.1,283.8 223.5,274.8 263.8,263.0 304.2,247.7 344.5,228.0 384.9,202.1 425.3,166.9 465.6,115.8 506.0,30.2"/><line x1="74" y1="28" x2="100" y2="28" stroke="black" stroke-width="2"/><text x="106" y="32" font-size="12" font-family="Georgia,'Times New Roman',serif">rotation probe (V23a, Omega=0.15)</text><line x1="74" y1="46" x2="100" y2="46" stroke="black" stroke-width="1.3" stroke-dasharray="7 4"/><text x="106" y="50" font-size="12" font-family="Georgia,'Times New Roman',serif">expansion probe (V24a, H=0.01)</text><line x1="74" y1="64" x2="100" y2="64" stroke="#888" stroke-width="1.3" stroke-dasharray="2 3"/><text x="106" y="68" font-size="12" font-family="Georgia,'Times New Roman',serif">analytic uniform-ring limit</text><text x="284" y="350" text-anchor="middle" font-size="14" font-family="Georgia,'Times New Roman',serif">probe radius r</text><text x="16" y="164" text-anchor="middle" font-size="14" font-family="Georgia,'Times New Roman',serif" transform="rotate(-90 16 164)">frame gain  g(r)</text></svg>