<svg xmlns="http://www.w3.org/2000/svg" width="520" height="602" viewBox="0 0 520 602"><rect width="520" height="602" fill="white"/><g transform="translate(0,0)"><rect x="0" y="0" width="520" height="306" fill="white"/><line x1="66" y1="357.1505493870347" x2="506" y2="357.1505493870347" stroke="#ddd" stroke-width="0.6"/><line x1="66" y1="194.48115103389634" x2="506" y2="194.48115103389634" stroke="#ddd" stroke-width="0.6"/><line x1="66" y1="31.811752680757984" x2="506" y2="31.811752680757984" stroke="#ddd" stroke-width="0.6"/><line x1="66" y1="-130.8576456723804" x2="506" y2="-130.8576456723804" stroke="#ddd" stroke-width="0.6"/><rect x="66" y="16" width="440" height="244" fill="none" stroke="black" stroke-width="1"/><line x1="165.55598372717375" y1="260" x2="165.55598372717375" y2="264" stroke="black"/><text x="165.55598372717375" y="278" text-anchor="middle" font-size="12" font-family="Georgia,'Times New Roman',serif">5x10^-8</text><line x1="268.039844469611" y1="260" x2="268.039844469611" y2="264" stroke="black"/><text x="268.039844469611" y="278" text-anchor="middle" font-size="12" font-family="Georgia,'Times New Roman',serif">10^-7</text><line x1="370.52370521204824" y1="260" x2="370.52370521204824" y2="264" stroke="black"/><text x="370.52370521204824" y="278" text-anchor="middle" font-size="12" font-family="Georgia,'Times New Roman',serif">2x10^-7</text><line x1="506" y1="260" x2="506" y2="264" stroke="black"/><text x="506" y="278" text-anchor="end" font-size="12" font-family="Georgia,'Times New Roman',serif">5x10^-7</text><line x1="62" y1="357.1505493870347" x2="66" y2="357.1505493870347" stroke="black"/><text x="59" y="361.1505493870347" text-anchor="end" font-size="12" font-family="Georgia,'Times New Roman',serif">10^-7</text><line x1="62" y1="194.48115103389634" x2="66" y2="194.48115103389634" stroke="black"/><text x="59" y="198.48115103389634" text-anchor="end" font-size="12" font-family="Georgia,'Times New Roman',serif">10^-6</text><line x1="62" y1="31.811752680757984" x2="66" y2="31.811752680757984" stroke="black"/><text x="59" y="35.811752680757984" text-anchor="end" font-size="12" font-family="Georgia,'Times New Roman',serif">10^-5</text><line x1="62" y1="-130.8576456723804" x2="66" y2="-130.8576456723804" stroke="black"/><text x="59" y="-126.85764567238039" text-anchor="end" font-size="12" font-family="Georgia,'Times New Roman',serif">10^-4</text><polyline fill="none" stroke="#888" stroke-width="2" points="506.0,32.9 268.0,146.6 66.0,243.2"/><polyline fill="none" stroke="black" stroke-width="1.3" points="506.0,32.8 268.0,146.5 66.0,243.0"/><circle cx="506.0" cy="32.8" r="3" fill="black"/><circle cx="268.0" cy="146.5" r="3" fill="black"/><circle cx="66.0" cy="243.0" r="3" fill="black"/><circle cx="66.0" cy="243.0" r="6.5" fill="none" stroke="black" stroke-width="1.4"/><text x="79.0" y="231.0" text-anchor="start" font-size="11" font-family="Georgia,'Times New Roman',serif">Mercury's own depth</text><line x1="78" y1="30" x2="104" y2="30" stroke="#888" stroke-width="2"/><text x="110" y="34" font-size="12" font-family="Georgia,'Times New Roman',serif">Eq. (1):  6 pi d / (1 - e^2)</text><line x1="78" y1="48" x2="104" y2="48" stroke="black" stroke-width="1.3"/><text x="110" y="52" font-size="12" font-family="Georgia,'Times New Roman',serif">measured (1PN on minus off)</text><text x="286" y="296" text-anchor="middle" font-size="14" font-family="Georgia,'Times New Roman',serif">depth  d = GM/(c^2 a)</text><text x="16" y="138" text-anchor="middle" font-size="14" font-family="Georgia,'Times New Roman',serif" transform="rotate(-90 16 138)">apsidal advance  (rad/orbit)</text><text x="70" y="13" font-size="13" font-family="Georgia,'Times New Roman',serif">invariant ladder: measured against the weak-field expression</text></g><text x="6" y="16" font-size="14" font-weight="bold" font-family="Georgia,'Times New Roman',serif">(a)</text><g transform="translate(0,314)"><rect x="0" y="0" width="520" height="288" fill="white"/><line x1="66" y1="242" x2="506" y2="242" stroke="#ddd" stroke-width="0.6"/><line x1="66" y1="166.66666666666669" x2="506" y2="166.66666666666669" stroke="#ddd" stroke-width="0.6"/><line x1="66" y1="91.33333333333334" x2="506" y2="91.33333333333334" stroke="#ddd" stroke-width="0.6"/><line x1="66" y1="16" x2="506" y2="16" stroke="#ddd" stroke-width="0.6"/><rect x="66" y="16" width="440" height="226" fill="none" stroke="black" stroke-width="1"/><line x1="165.55598372717375" y1="242" x2="165.55598372717375" y2="246" stroke="black"/><text x="165.55598372717375" y="260" text-anchor="middle" font-size="12" font-family="Georgia,'Times New Roman',serif">5x10^-8</text><line x1="268.039844469611" y1="242" x2="268.039844469611" y2="246" stroke="black"/><text x="268.039844469611" y="260" text-anchor="middle" font-size="12" font-family="Georgia,'Times New Roman',serif">10^-7</text><line x1="370.52370521204824" y1="242" x2="370.52370521204824" y2="246" stroke="black"/><text x="370.52370521204824" y="260" text-anchor="middle" font-size="12" font-family="Georgia,'Times New Roman',serif">2x10^-7</text><line x1="506" y1="242" x2="506" y2="246" stroke="black"/><text x="506" y="260" text-anchor="end" font-size="12" font-family="Georgia,'Times New Roman',serif">5x10^-7</text><line x1="62" y1="242" x2="66" y2="242" stroke="black"/><text x="59" y="246" text-anchor="end" font-size="12" font-family="Georgia,'Times New Roman',serif">0.998</text><line x1="62" y1="166.66666666666669" x2="66" y2="166.66666666666669" stroke="black"/><text x="59" y="170.66666666666669" text-anchor="end" font-size="12" font-family="Georgia,'Times New Roman',serif">1.000</text><line x1="62" y1="91.33333333333334" x2="66" y2="91.33333333333334" stroke="black"/><text x="59" y="95.33333333333334" text-anchor="end" font-size="12" font-family="Georgia,'Times New Roman',serif">1.002</text><line x1="62" y1="16" x2="66" y2="16" stroke="black"/><text x="59" y="20" text-anchor="end" font-size="12" font-family="Georgia,'Times New Roman',serif">1.004</text><polyline fill="none" stroke="black" stroke-width="2" points="506.0,110.1 268.0,118.4 66.0,96.6"/><circle cx="506.0" cy="110.1" r="3" fill="black"/><circle cx="268.0" cy="118.4" r="3" fill="black"/><circle cx="66.0" cy="96.6" r="3" fill="black"/><polyline fill="none" stroke="#888" stroke-width="1.3" stroke-dasharray="2 3" points="506.0,166.7 268.0,166.7 66.0,166.7"/><circle cx="66.0" cy="96.6" r="6.5" fill="none" stroke="black" stroke-width="1.4"/><text x="79.0" y="116.6" text-anchor="start" font-size="11" font-family="Georgia,'Times New Roman',serif">1.0019  ->  43.04 arcsec/century</text><line x1="78" y1="30" x2="104" y2="30" stroke="black" stroke-width="2"/><text x="110" y="34" font-size="12" font-family="Georgia,'Times New Roman',serif">ratio</text><line x1="78" y1="48" x2="104" y2="48" stroke="#888" stroke-width="1.3" stroke-dasharray="2 3"/><text x="110" y="52" font-size="12" font-family="Georgia,'Times New Roman',serif">exact agreement</text><text x="286" y="278" text-anchor="middle" font-size="14" font-family="Georgia,'Times New Roman',serif">depth  d = GM/(c^2 a)</text><text x="16" y="129" text-anchor="middle" font-size="14" font-family="Georgia,'Times New Roman',serif" transform="rotate(-90 16 129)">measured / Eq. (1)</text><text x="70" y="13" font-size="13" font-family="Georgia,'Times New Roman',serif">ratio at each rung (all three rungs within 0.2%)</text></g><text x="6" y="330" font-size="14" font-weight="bold" font-family="Georgia,'Times New Roman',serif">(b)</text></svg>