<svg xmlns="http://www.w3.org/2000/svg" width="520" height="602" viewBox="0 0 520 602"><rect width="520" height="602" fill="white"/><g transform="translate(0,0)"><rect x="0" y="0" width="520" height="306" fill="white"/><line x1="66" y1="255.44154162668903" x2="506" y2="255.44154162668903" stroke="#ddd" stroke-width="0.6"/><line x1="66" y1="199.67277874675457" x2="506" y2="199.67277874675457" stroke="#ddd" stroke-width="0.6"/><line x1="66" y1="143.90401586682015" x2="506" y2="143.90401586682015" stroke="#ddd" stroke-width="0.6"/><line x1="66" y1="88.13525298688567" x2="506" y2="88.13525298688567" stroke="#ddd" stroke-width="0.6"/><line x1="66" y1="32.36649010695122" x2="506" y2="32.36649010695122" stroke="#ddd" stroke-width="0.6"/><rect x="66" y="16" width="440" height="244" fill="none" stroke="black" stroke-width="1"/><line x1="74.80508418235176" y1="260" x2="74.80508418235176" y2="264" stroke="black"/><text x="74.80508418235176" y="278" text-anchor="start" font-size="12" font-family="Georgia,'Times New Roman',serif">10^-3</text><line x1="272.76177426707204" y1="260" x2="272.76177426707204" y2="264" stroke="black"/><text x="272.76177426707204" y="278" text-anchor="middle" font-size="12" font-family="Georgia,'Times New Roman',serif">10^-2</text><line x1="470.7184643517923" y1="260" x2="470.7184643517923" y2="264" stroke="black"/><text x="470.7184643517923" y="278" text-anchor="middle" font-size="12" font-family="Georgia,'Times New Roman',serif">10^-1</text><line x1="62" y1="255.44154162668903" x2="66" y2="255.44154162668903" stroke="black"/><text x="59" y="259.44154162668906" text-anchor="end" font-size="12" font-family="Georgia,'Times New Roman',serif">0.0</text><line x1="62" y1="199.67277874675457" x2="66" y2="199.67277874675457" stroke="black"/><text x="59" y="203.67277874675457" text-anchor="end" font-size="12" font-family="Georgia,'Times New Roman',serif">0.5</text><line x1="62" y1="143.90401586682015" x2="66" y2="143.90401586682015" stroke="black"/><text x="59" y="147.90401586682015" text-anchor="end" font-size="12" font-family="Georgia,'Times New Roman',serif">1.0</text><line x1="62" y1="88.13525298688567" x2="66" y2="88.13525298688567" stroke="black"/><text x="59" y="92.13525298688567" text-anchor="end" font-size="12" font-family="Georgia,'Times New Roman',serif">1.5</text><line x1="62" y1="32.36649010695122" x2="66" y2="32.36649010695122" stroke="black"/><text x="59" y="36.36649010695122" text-anchor="end" font-size="12" font-family="Georgia,'Times New Roman',serif">2.0</text><polyline fill="none" stroke="black" stroke-width="2" points="506.0,32.8 453.6,33.0 397.9,86.9 321.5,139.3 262.7,139.4"/><circle cx="506.0" cy="32.8" r="3" fill="black"/><circle cx="453.6" cy="33.0" r="3" fill="black"/><circle cx="397.9" cy="86.9" r="3" fill="black"/><circle cx="321.5" cy="139.3" r="3" fill="black"/><circle cx="262.7" cy="139.4" r="3" fill="black"/><polyline fill="none" stroke="black" stroke-width="1.3" stroke-dasharray="7 4" points="506.0,32.8 411.5,158.3 284.1,231.0 196.9,238.4 66.0,241.5"/><circle cx="506.0" cy="32.8" r="3" fill="black"/><circle cx="411.5" cy="158.3" r="3" fill="black"/><circle cx="284.1" cy="231.0" r="3" fill="black"/><circle cx="196.9" cy="238.4" r="3" fill="black"/><circle cx="66.0" cy="241.5" r="3" fill="black"/><polyline fill="none" stroke="#888" stroke-width="1.3" stroke-dasharray="2 3" points="102.5,243.2 506.0,243.2"/><circle cx="196.9" cy="238.4" r="6.5" fill="none" stroke="black" stroke-width="1.4"/><text x="206.9" y="252.4" text-anchor="start" font-size="11" font-family="Georgia,'Times New Roman',serif">largest stable  g=4.1e-3</text><circle cx="262.7" cy="139.4" r="6.5" fill="none" stroke="black" stroke-width="1.4"/><text x="252.7" y="129.4" text-anchor="end" font-size="11" font-family="Georgia,'Times New Roman',serif">smallest unstable  g=8.9e-3</text><line x1="78" y1="30" x2="104" y2="30" stroke="black" stroke-width="2"/><text x="110" y="34" font-size="12" font-family="Georgia,'Times New Roman',serif">route: satellite weight k_sat</text><line x1="78" y1="48" x2="104" y2="48" stroke="black" stroke-width="1.3" stroke-dasharray="7 4"/><text x="110" y="52" font-size="12" font-family="Georgia,'Times New Roman',serif">route: background D_0</text><line x1="78" y1="66" x2="104" y2="66" stroke="#888" stroke-width="1.3" stroke-dasharray="2 3"/><text x="110" y="70" font-size="12" font-family="Georgia,'Times New Roman',serif">natural-eccentricity target ~0.11</text><text x="286" y="296" text-anchor="middle" font-size="14" font-family="Georgia,'Times New Roman',serif">loop gain  g = chi_sat * chi_M</text><text x="16" y="138" text-anchor="middle" font-size="14" font-family="Georgia,'Times New Roman',serif" transform="rotate(-90 16 138)">radial excursion amp</text><text x="70" y="13" font-size="13" font-family="Georgia,'Times New Roman',serif">dose response along two routes (Earth-Moon configuration)</text></g><text x="6" y="16" font-size="14" font-weight="bold" font-family="Georgia,'Times New Roman',serif">(a)</text><g transform="translate(0,314)"><rect x="0" y="0" width="520" height="288" fill="white"/><line x1="66" y1="242" x2="506" y2="242" stroke="#ddd" stroke-width="0.6"/><line x1="66" y1="198.95238095238096" x2="506" y2="198.95238095238096" stroke="#ddd" stroke-width="0.6"/><line x1="66" y1="155.9047619047619" x2="506" y2="155.9047619047619" stroke="#ddd" stroke-width="0.6"/><line x1="66" y1="112.85714285714286" x2="506" y2="112.85714285714286" stroke="#ddd" stroke-width="0.6"/><line x1="66" y1="69.80952380952382" x2="506" y2="69.80952380952382" stroke="#ddd" stroke-width="0.6"/><line x1="66" y1="26.761904761904773" x2="506" y2="26.761904761904773" stroke="#ddd" stroke-width="0.6"/><rect x="66" y="16" width="440" height="226" fill="none" stroke="black" stroke-width="1"/><line x1="74.80508418235176" y1="242" x2="74.80508418235176" y2="246" stroke="black"/><text x="74.80508418235176" y="260" text-anchor="start" font-size="12" font-family="Georgia,'Times New Roman',serif">10^-3</text><line x1="272.76177426707204" y1="242" x2="272.76177426707204" y2="246" stroke="black"/><text x="272.76177426707204" y="260" text-anchor="middle" font-size="12" font-family="Georgia,'Times New Roman',serif">10^-2</text><line x1="470.7184643517923" y1="242" x2="470.7184643517923" y2="246" stroke="black"/><text x="470.7184643517923" y="260" text-anchor="middle" font-size="12" font-family="Georgia,'Times New Roman',serif">10^-1</text><line x1="62" y1="242" x2="66" y2="242" stroke="black"/><text x="59" y="246" text-anchor="end" font-size="12" font-family="Georgia,'Times New Roman',serif">0.0</text><line x1="62" y1="198.95238095238096" x2="66" y2="198.95238095238096" stroke="black"/><text x="59" y="202.95238095238096" text-anchor="end" font-size="12" font-family="Georgia,'Times New Roman',serif">0.2</text><line x1="62" y1="155.9047619047619" x2="66" y2="155.9047619047619" stroke="black"/><text x="59" y="159.9047619047619" text-anchor="end" font-size="12" font-family="Georgia,'Times New Roman',serif">0.4</text><line x1="62" y1="112.85714285714286" x2="66" y2="112.85714285714286" stroke="black"/><text x="59" y="116.85714285714286" text-anchor="end" font-size="12" font-family="Georgia,'Times New Roman',serif">0.6</text><line x1="62" y1="69.80952380952382" x2="66" y2="69.80952380952382" stroke="black"/><text x="59" y="73.80952380952382" text-anchor="end" font-size="12" font-family="Georgia,'Times New Roman',serif">0.8</text><line x1="62" y1="26.761904761904773" x2="66" y2="26.761904761904773" stroke="black"/><text x="59" y="30.761904761904773" text-anchor="end" font-size="12" font-family="Georgia,'Times New Roman',serif">1.0</text><polyline fill="none" stroke="black" stroke-width="2" points="506.0,39.8 453.6,39.7 397.9,39.7 321.5,39.6 262.7,39.6"/><circle cx="506.0" cy="39.8" r="3" fill="black"/><circle cx="453.6" cy="39.7" r="3" fill="black"/><circle cx="397.9" cy="39.7" r="3" fill="black"/><circle cx="321.5" cy="39.6" r="3" fill="black"/><circle cx="262.7" cy="39.6" r="3" fill="black"/><polyline fill="none" stroke="black" stroke-width="1.3" stroke-dasharray="7 4" points="506.0,39.8 411.5,61.6 284.1,111.0 196.9,147.9 66.0,191.0"/><circle cx="506.0" cy="39.8" r="3" fill="black"/><circle cx="411.5" cy="61.6" r="3" fill="black"/><circle cx="284.1" cy="111.0" r="3" fill="black"/><circle cx="196.9" cy="147.9" r="3" fill="black"/><circle cx="66.0" cy="191.0" r="3" fill="black"/><line x1="78" y1="200" x2="104" y2="200" stroke="black" stroke-width="2"/><text x="110" y="204" font-size="12" font-family="Georgia,'Times New Roman',serif">route: satellite weight k_sat</text><line x1="78" y1="218" x2="104" y2="218" stroke="black" stroke-width="1.3" stroke-dasharray="7 4"/><text x="110" y="222" font-size="12" font-family="Georgia,'Times New Roman',serif">route: background D_0</text><text x="286" y="278" text-anchor="middle" font-size="14" font-family="Georgia,'Times New Roman',serif">loop gain  g = chi_sat * chi_M</text><text x="16" y="129" text-anchor="middle" font-size="14" font-family="Georgia,'Times New Roman',serif" transform="rotate(-90 16 129)">primary-side factor  chi_M</text><text x="70" y="13" font-size="13" font-family="Georgia,'Times New Roman',serif">why the satellite-mass route cannot stabilize: chi_M never comes down</text></g><text x="6" y="330" font-size="14" font-weight="bold" font-family="Georgia,'Times New Roman',serif">(b)</text></svg>