<svg xmlns="http://www.w3.org/2000/svg" width="520" height="424" viewBox="0 0 520 424"><rect x="0" y="0" width="520" height="424" fill="white"/><line x1="66" y1="354.57149021091425" x2="506" y2="354.57149021091425" stroke="#ddd" stroke-width="0.6"/><line x1="66" y1="305.6709746260535" x2="506" y2="305.6709746260535" stroke="#ddd" stroke-width="0.6"/><line x1="66" y1="256.7704590411928" x2="506" y2="256.7704590411928" stroke="#ddd" stroke-width="0.6"/><line x1="66" y1="207.86994345633204" x2="506" y2="207.86994345633204" stroke="#ddd" stroke-width="0.6"/><line x1="66" y1="158.9694278714713" x2="506" y2="158.9694278714713" stroke="#ddd" stroke-width="0.6"/><line x1="66" y1="110.06891228661055" x2="506" y2="110.06891228661055" stroke="#ddd" stroke-width="0.6"/><line x1="66" y1="61.16839670174983" x2="506" y2="61.16839670174983" stroke="#ddd" stroke-width="0.6"/><line x1="66" y1="12.267881116889068" x2="506" y2="12.267881116889068" stroke="#ddd" stroke-width="0.6"/><rect x="66" y="16" width="440" height="328" fill="none" stroke="black" stroke-width="1"/><line x1="256.26972447272857" y1="344" x2="256.26972447272857" y2="348" stroke="black"/><text x="256.26972447272857" y="362" text-anchor="middle" font-size="12" font-family="Georgia,'Times New Roman',serif">10</text><line x1="487.20516066515427" y1="344" x2="487.20516066515427" y2="348" stroke="black"/><text x="487.20516066515427" y="362" text-anchor="end" font-size="12" font-family="Georgia,'Times New Roman',serif">10^2</text><line x1="62" y1="354.57149021091425" x2="66" y2="354.57149021091425" stroke="black"/><text x="59" y="358.57149021091425" text-anchor="end" font-size="12" font-family="Georgia,'Times New Roman',serif">10^-4</text><line x1="62" y1="305.6709746260535" x2="66" y2="305.6709746260535" stroke="black"/><text x="59" y="309.6709746260535" text-anchor="end" font-size="12" font-family="Georgia,'Times New Roman',serif">10^-2</text><line x1="62" y1="256.7704590411928" x2="66" y2="256.7704590411928" stroke="black"/><text x="59" y="260.7704590411928" text-anchor="end" font-size="12" font-family="Georgia,'Times New Roman',serif">1</text><line x1="62" y1="207.86994345633204" x2="66" y2="207.86994345633204" stroke="black"/><text x="59" y="211.86994345633204" text-anchor="end" font-size="12" font-family="Georgia,'Times New Roman',serif">10^2</text><line x1="62" y1="158.9694278714713" x2="66" y2="158.9694278714713" stroke="black"/><text x="59" y="162.9694278714713" text-anchor="end" font-size="12" font-family="Georgia,'Times New Roman',serif">10^4</text><line x1="62" y1="110.06891228661055" x2="66" y2="110.06891228661055" stroke="black"/><text x="59" y="114.06891228661055" text-anchor="end" font-size="12" font-family="Georgia,'Times New Roman',serif">10^6</text><line x1="62" y1="61.16839670174983" x2="66" y2="61.16839670174983" stroke="black"/><text x="59" y="65.16839670174983" text-anchor="end" font-size="12" font-family="Georgia,'Times New Roman',serif">10^8</text><line x1="62" y1="12.267881116889068" x2="66" y2="12.267881116889068" stroke="black"/><text x="59" y="16.26788111688907" text-anchor="end" font-size="12" font-family="Georgia,'Times New Roman',serif">10^10</text><polyline fill="none" stroke="black" stroke-width="2" points="66.0,98.8 121.0,113.8 176.0,134.5 231.0,159.7 286.0,188.2 341.0,219.3 396.0,252.2 430.8,273.7 451.0,286.4 506.0,321.4"/><circle cx="66.0" cy="98.8" r="3" fill="black"/><circle cx="121.0" cy="113.8" r="3" fill="black"/><circle cx="176.0" cy="134.5" r="3" fill="black"/><circle cx="231.0" cy="159.7" r="3" fill="black"/><circle cx="286.0" cy="188.2" r="3" fill="black"/><circle cx="341.0" cy="219.3" r="3" fill="black"/><circle cx="396.0" cy="252.2" r="3" fill="black"/><circle cx="430.8" cy="273.7" r="3" fill="black"/><circle cx="451.0" cy="286.4" r="3" fill="black"/><circle cx="506.0" cy="321.4" r="3" fill="black"/><polyline fill="none" stroke="black" stroke-width="1.3" stroke-dasharray="7 4" points="66.0,47.7 121.0,42.5 176.0,39.6 231.0,38.6 286.0,39.4 341.0,41.5 396.0,44.8 430.8,47.4 451.0,49.0 506.0,53.7"/><circle cx="66.0" cy="47.7" r="3" fill="black"/><circle cx="121.0" cy="42.5" r="3" fill="black"/><circle cx="176.0" cy="39.6" r="3" fill="black"/><circle cx="231.0" cy="38.6" r="3" fill="black"/><circle cx="286.0" cy="39.4" r="3" fill="black"/><circle cx="341.0" cy="41.5" r="3" fill="black"/><circle cx="396.0" cy="44.8" r="3" fill="black"/><circle cx="430.8" cy="47.4" r="3" fill="black"/><circle cx="451.0" cy="49.0" r="3" fill="black"/><circle cx="506.0" cy="53.7" r="3" fill="black"/><polyline fill="none" stroke="#888" stroke-width="1.3" stroke-dasharray="2 3" points="66.0,256.8 506.0,256.8"/><circle cx="430.8" cy="257.4" r="6.5" fill="none" stroke="black" stroke-width="1.4"/><text x="418.8" y="249.4" text-anchor="end" font-size="11" font-family="Georgia,'Times New Roman',serif">reference orbit, bare profile: 0.944</text><circle cx="430.8" cy="273.7" r="6.5" fill="none" stroke="black" stroke-width="1.4"/><text x="418.8" y="289.7" text-anchor="end" font-size="11" font-family="Georgia,'Times New Roman',serif">with chi(r): 0.203</text><line x1="78" y1="284" x2="104" y2="284" stroke="black" stroke-width="2"/><text x="110" y="288" font-size="12" font-family="Georgia,'Times New Roman',serif">qLock  q* = 8.25</text><line x1="78" y1="302" x2="104" y2="302" stroke="black" stroke-width="1.3" stroke-dasharray="7 4"/><text x="110" y="306" font-size="12" font-family="Georgia,'Times New Roman',serif">flat control  q = 3</text><line x1="78" y1="320" x2="104" y2="320" stroke="#888" stroke-width="1.3" stroke-dasharray="2 3"/><text x="110" y="324" font-size="12" font-family="Georgia,'Times New Roman',serif">Lense-Thirring reference (ratio = 1)</text><text x="68" y="378" font-size="11" font-family="Georgia,'Times New Roman',serif">outer log-log slope:  -8.99 (qLock)  /  -3.81 (q=3)  /  -3 (LT)</text><text x="68" y="393" font-size="11" font-family="Georgia,'Times New Roman',serif">chi(r) saturates inward: 0.912 at r/R_E=1.5  ->  0.115 at r/R_E=121</text><text x="286" y="414" text-anchor="middle" font-size="14" font-family="Georgia,'Times New Roman',serif">orbital radius  r / R_E</text><text x="16" y="180" text-anchor="middle" font-size="14" font-family="Georgia,'Times New Roman',serif" transform="rotate(-90 16 180)">omega_DFM / Omega_LT</text><text x="70" y="13" font-size="13" font-family="Georgia,'Times New Roman',serif">entrainment profile against the Lense-Thirring rate</text></svg>